<?xml version="1.0" encoding="UTF-8" standalone="no"?>
<svg
   xmlns:dc="http://purl.org/dc/elements/1.1/"
   xmlns:cc="http://creativecommons.org/ns#"
   xmlns:rdf="http://www.w3.org/1999/02/22-rdf-syntax-ns#"
   xmlns:svg="http://www.w3.org/2000/svg"
   xmlns="http://www.w3.org/2000/svg"
   xmlns:sodipodi="http://sodipodi.sourceforge.net/DTD/sodipodi-0.dtd"
   xmlns:inkscape="http://www.inkscape.org/namespaces/inkscape"
   width="1368.1016"
   height="1383.5706"
   version="1.1"
   id="svg118"
   sodipodi:docname="maze_final3.svg"
   inkscape:export-filename="/home/freaf87/Workspaces/eclipse-workspace/DisplayImage/image/maze_final3_2.png"
   inkscape:export-xdpi="161"
   inkscape:export-ydpi="161"
   inkscape:version="0.92.2 (5c3e80d, 2017-08-06)">
  <metadata
     id="metadata124">
    <rdf:RDF>
      <cc:Work
         rdf:about="">
        <dc:format>image/svg+xml</dc:format>
        <dc:type
           rdf:resource="http://purl.org/dc/dcmitype/StillImage" />
        <dc:title>25 by 25 orthogonal maze</dc:title>
      </cc:Work>
    </rdf:RDF>
  </metadata>
  <defs
     id="defs122" />
  <sodipodi:namedview
     pagecolor="#ffffff"
     bordercolor="#666666"
     borderopacity="1"
     objecttolerance="10"
     gridtolerance="10"
     guidetolerance="10"
     inkscape:pageopacity="1"
     inkscape:pageshadow="2"
     inkscape:window-width="1920"
     inkscape:window-height="1051"
     id="namedview120"
     showgrid="false"
     fit-margin-top="20"
     fit-margin-left="20"
     fit-margin-bottom="20"
     fit-margin-right="20"
     inkscape:pagecheckerboard="true"
     inkscape:zoom="1.1683168"
     inkscape:cx="826.23727"
     inkscape:cy="407.89479"
     inkscape:window-x="0"
     inkscape:window-y="0"
     inkscape:window-maximized="1"
     inkscape:current-layer="svg118" />
  <title
     id="title2">25 by 25 orthogonal maze</title>
  <desc
     id="desc4">25 by 25 orthogonal maze generated by The Maze Generator Website (http://www.mazegenerator.net/).</desc>
  <polyline
     style="fill:none;stroke:#000000;stroke-width:2.61192254;stroke-linecap:square;stroke-linejoin:round;stroke-miterlimit:4;stroke-dasharray:none"
     id="polyline6"
     points="202,274 202,282 218,282 218,298 202,298 202,314 218,314 218,330 234,330 234,346 250,346 250,330 330,330 330,346 346,346 346,314 362,314 362,298 378,298 378,282 362,282 362,266 378,266 378,250 362,250 362,234 394,234 394,202 346,202 346,186 330,186 330,170 314,170 314,138 330,138 330,90 282,90 282,106 266,106 266,90 250,90 250,74 266,74 266,58 250,58 250,42 234,42 234,58 218,58 218,74 202,74 202,58 186,58 186,42 218,42 218,26 202,26 202,2"
     transform="matrix(3.4352329,0,0,3.3450473,-9.8662761,41.253667)" />
  <polyline
     style="fill:none;stroke:#000000;stroke-width:2.6117897;stroke-linecap:square;stroke-linejoin:round;stroke-miterlimit:4;stroke-dasharray:none"
     id="polyline8"
     points="186,58 170,58 170,10 186,10 186,26"
     transform="matrix(3.4352329,0,0,3.3450473,-9.8662761,41.253667)" />
  <polyline
     style="fill:none;stroke:#000000;stroke-width:2.6117897;stroke-linecap:square;stroke-linejoin:round;stroke-miterlimit:4;stroke-dasharray:none"
     id="polyline10"
     points="330,170 330,154"
     transform="matrix(3.4352329,0,0,3.3450473,-9.8662761,41.253667)" />
  <polyline
     style="fill:none;stroke:#000000;stroke-width:2.6117897;stroke-linecap:square;stroke-linejoin:round;stroke-miterlimit:4;stroke-dasharray:none"
     id="polyline12"
     points="346,202 314,202 314,186 298,186 298,106 314,106 314,122"
     transform="matrix(3.4352329,0,0,3.3450473,-9.8662761,41.253667)" />
  <polyline
     style="fill:none;stroke:#000000;stroke-width:2.6117897;stroke-linecap:square;stroke-linejoin:round;stroke-miterlimit:4;stroke-dasharray:none"
     id="polyline14"
     points="362,202 362,170 346,170 346,154 394,154 394,58 378,58 378,90"
     transform="matrix(3.4352329,0,0,3.3450473,-9.8662761,41.253667)" />
  <polyline
     style="fill:none;stroke:#000000;stroke-width:2.6117897;stroke-linecap:square;stroke-linejoin:round;stroke-miterlimit:4;stroke-dasharray:none"
     id="polyline16"
     points="378,74 346,74 346,90 362,90 362,106 378,106 378,138 346,138"
     transform="matrix(3.4352329,0,0,3.3450473,-9.8662761,41.253667)" />
  <polyline
     style="fill:none;stroke:#000000;stroke-width:2.6117897;stroke-linecap:square;stroke-linejoin:round;stroke-miterlimit:4;stroke-dasharray:none"
     id="polyline18"
     points="362,138 362,122 346,122 346,106"
     transform="matrix(3.4352329,0,0,3.3450473,-9.8662761,41.253667)" />
  <polyline
     style="fill:none;stroke:#000000;stroke-width:2.6117897;stroke-linecap:square;stroke-linejoin:round;stroke-miterlimit:4;stroke-dasharray:none"
     id="polyline20"
     points="362,74 362,58 330,58 330,74 314,74 314,58 298,58 298,74 282,74 282,42 266,42"
     transform="matrix(3.4352329,0,0,3.3450473,-9.8662761,41.253667)" />
  <polyline
     style="fill:none;stroke:#000000;stroke-width:2.6117897;stroke-linecap:square;stroke-linejoin:round;stroke-miterlimit:4;stroke-dasharray:none"
     id="polyline22"
     points="282,42 298,42 298,10 330,10 330,26 362,26 362,42 394,42"
     transform="matrix(3.4352329,0,0,3.3450473,-9.8662761,41.253667)" />
  <polyline
     style="fill:none;stroke:#000000;stroke-width:2.6117897;stroke-linecap:square;stroke-linejoin:round;stroke-miterlimit:4;stroke-dasharray:none"
     id="polyline24"
     points="378,42 378,26 394,26 394,10 346,10"
     transform="matrix(3.4352329,0,0,3.3450473,-9.8662761,41.253667)" />
  <polyline
     style="fill:none;stroke:#000000;stroke-width:2.6117897;stroke-linecap:square;stroke-linejoin:round;stroke-miterlimit:4;stroke-dasharray:none"
     id="polyline26"
     points="346,26 346,42 314,42 314,26"
     transform="matrix(3.4352329,0,0,3.3450473,-9.8662761,41.253667)" />
  <polyline
     style="fill:none;stroke:#000000;stroke-width:2.6117897;stroke-linecap:square;stroke-linejoin:round;stroke-miterlimit:4;stroke-dasharray:none"
     id="polyline28"
     points="298,26 234,26"
     transform="matrix(3.4352329,0,0,3.3450473,-9.8662761,41.253667)" />
  <polyline
     style="fill:none;stroke:#000000;stroke-width:2.6117897;stroke-linecap:square;stroke-linejoin:round;stroke-miterlimit:4;stroke-dasharray:none"
     id="polyline30"
     points="266,26 266,10 218,10"
     transform="matrix(3.4352329,0,0,3.3450473,-9.8662761,41.253667)" />
  <polyline
     style="fill:none;stroke:#000000;stroke-width:2.6117897;stroke-linecap:square;stroke-linejoin:round;stroke-miterlimit:4;stroke-dasharray:none"
     id="polyline32"
     points="282,26 282,10"
     transform="matrix(3.4352329,0,0,3.3450473,-9.8662761,41.253667)" />
  <polyline
     style="fill:none;stroke:#000000;stroke-width:2.6117897;stroke-linecap:square;stroke-linejoin:round;stroke-miterlimit:4;stroke-dasharray:none"
     id="polyline34"
     points="378,202 378,218 314,218"
     transform="matrix(3.4352329,0,0,3.3450473,-9.8662761,41.253667)" />
  <polyline
     style="fill:none;stroke:#000000;stroke-width:2.6117897;stroke-linecap:square;stroke-linejoin:round;stroke-miterlimit:4;stroke-dasharray:none"
     id="polyline36"
     points="346,218 346,234"
     transform="matrix(3.4352329,0,0,3.3450473,-9.8662761,41.253667)" />
  <polyline
     style="fill:none;stroke:#000000;stroke-width:2.6117897;stroke-linecap:square;stroke-linejoin:round;stroke-miterlimit:4;stroke-dasharray:none"
     id="polyline38"
     points="394,202 394,170 378,170 378,186"
     transform="matrix(3.4352329,0,0,3.3450473,-9.8662761,41.253667)" />
  <polyline
     style="fill:none;stroke:#000000;stroke-width:2.6117897;stroke-linecap:square;stroke-linejoin:round;stroke-miterlimit:4;stroke-dasharray:none"
     id="polyline40"
     points="378,266 394,266 394,250"
     transform="matrix(3.4352329,0,0,3.3450473,-9.8662761,41.253667)" />
  <polyline
     style="fill:none;stroke:#000000;stroke-width:2.6117897;stroke-linecap:square;stroke-linejoin:round;stroke-miterlimit:4;stroke-dasharray:none"
     id="polyline42"
     points="346,314 346,282 330,282 330,266 298,266 298,250 314,250 314,234 330,234 330,250 346,250 346,266"
     transform="matrix(3.4352329,0,0,3.3450473,-9.8662761,41.253667)" />
  <polyline
     style="fill:none;stroke:#000000;stroke-width:2.6117897;stroke-linecap:square;stroke-linejoin:round;stroke-miterlimit:4;stroke-dasharray:none"
     id="polyline44"
     points="314,330 314,346 298,346 298,378 282,378 282,394 266,394 266,378 234,378 234,362 218,362 218,394 250,394"
     transform="matrix(3.4352329,0,0,3.3450473,-9.8662761,41.253667)" />
  <polyline
     style="fill:none;stroke:#000000;stroke-width:2.6117897;stroke-linecap:square;stroke-linejoin:round;stroke-miterlimit:4;stroke-dasharray:none"
     id="polyline46"
     points="234,362 250,362"
     transform="matrix(3.4352329,0,0,3.3450473,-9.8662761,41.253667)" />
  <polyline
     style="fill:none;stroke:#000000;stroke-width:2.6117897;stroke-linecap:square;stroke-linejoin:round;stroke-miterlimit:4;stroke-dasharray:none"
     id="polyline48"
     points="298,362 346,362 346,378 362,378 362,362 378,362 378,314 394,314 394,282"
     transform="matrix(3.4352329,0,0,3.3450473,-9.8662761,41.253667)" />
  <polyline
     style="fill:none;stroke:#000000;stroke-width:2.6117897;stroke-linecap:square;stroke-linejoin:round;stroke-miterlimit:4;stroke-dasharray:none"
     id="polyline50"
     points="394,314 394,330"
     transform="matrix(3.4352329,0,0,3.3450473,-9.8662761,41.253667)" />
  <polyline
     style="fill:none;stroke:#000000;stroke-width:2.6117897;stroke-linecap:square;stroke-linejoin:round;stroke-miterlimit:4;stroke-dasharray:none"
     id="polyline52"
     points="378,330 362,330 362,346"
     transform="matrix(3.4352329,0,0,3.3450473,-9.8662761,41.253667)" />
  <polyline
     style="fill:none;stroke:#000000;stroke-width:2.6117897;stroke-linecap:square;stroke-linejoin:round;stroke-miterlimit:4;stroke-dasharray:none"
     id="polyline54"
     points="378,346 394,346 394,394 378,394 378,378"
     transform="matrix(3.4352329,0,0,3.3450473,-9.8662761,41.253667)" />
  <polyline
     style="fill:none;stroke:#000000;stroke-width:2.6117897;stroke-linecap:square;stroke-linejoin:round;stroke-miterlimit:4;stroke-dasharray:none"
     id="polyline56"
     points="362,378 362,394 330,394 330,378 314,378 314,394 298,394"
     transform="matrix(3.4352329,0,0,3.3450473,-9.8662761,41.253667)" />
  <polyline
     style="fill:none;stroke:#000000;stroke-width:2.6117897;stroke-linecap:square;stroke-linejoin:round;stroke-miterlimit:4;stroke-dasharray:none"
     id="polyline58"
     points="298,330 298,282 282,282 282,234 298,234 298,202"
     transform="matrix(3.4352329,0,0,3.3450473,-9.8662761,41.253667)" />
  <polyline
     style="fill:none;stroke:#000000;stroke-width:2.6117897;stroke-linecap:square;stroke-linejoin:round;stroke-miterlimit:4;stroke-dasharray:none"
     id="polyline60"
     points="298,218 282,218 282,122"
     transform="matrix(3.4352329,0,0,3.3450473,-9.8662761,41.253667)" />
  <polyline
     style="fill:none;stroke:#000000;stroke-width:2.6117897;stroke-linecap:square;stroke-linejoin:round;stroke-miterlimit:4;stroke-dasharray:none"
     id="polyline62"
     points="298,282 314,282 314,298 330,298 330,314 314,314"
     transform="matrix(3.4352329,0,0,3.3450473,-9.8662761,41.253667)" />
  <polyline
     style="fill:none;stroke:#000000;stroke-width:2.6117897;stroke-linecap:square;stroke-linejoin:round;stroke-miterlimit:4;stroke-dasharray:none"
     id="polyline64"
     points="298,298 282,298 282,314 234,314 234,282 266,282 266,298 250,298"
     transform="matrix(3.4352329,0,0,3.3450473,-9.8662761,41.253667)" />
  <polyline
     style="fill:none;stroke:#000000;stroke-width:2.6117897;stroke-linecap:square;stroke-linejoin:round;stroke-miterlimit:4;stroke-dasharray:none"
     id="polyline66"
     points="250,346 266,346 266,362 282,362 282,346"
     transform="matrix(3.4352329,0,0,3.3450473,-9.8662761,41.253667)" />
  <polyline
     style="fill:none;stroke:#000000;stroke-width:2.6117897;stroke-linecap:square;stroke-linejoin:round;stroke-miterlimit:4;stroke-dasharray:none"
     id="polyline68"
     points="202,314 138,314 138,298 106,298 106,314 122,314 122,330 138,330 138,362 122,362 122,346 90,346 90,362 106,362 106,378 90,378 90,394 122,394 122,378 138,378 138,394 154,394 154,330 170,330 170,394 202,394 202,378"
     transform="matrix(3.4352329,0,0,3.3450473,-9.8662761,41.253667)" />
  <polyline
     style="fill:none;stroke:#000000;stroke-width:2.6117897;stroke-linecap:square;stroke-linejoin:round;stroke-miterlimit:4;stroke-dasharray:none"
     id="polyline70"
     points="186,394 186,362 202,362 202,330 186,330 186,346"
     transform="matrix(3.4352329,0,0,3.3450473,-9.8662761,41.253667)" />
  <polyline
     style="fill:none;stroke:#000000;stroke-width:2.6117897;stroke-linecap:square;stroke-linejoin:round;stroke-miterlimit:4;stroke-dasharray:none"
     id="polyline72"
     points="202,346 218,346"
     transform="matrix(3.4352329,0,0,3.3450473,-9.8662761,41.253667)" />
  <polyline
     style="fill:none;stroke:#000000;stroke-width:2.6117897;stroke-linecap:square;stroke-linejoin:round;stroke-miterlimit:4;stroke-dasharray:none"
     id="polyline74"
     points="106,346 106,330 74,330 74,314 90,314 90,282 42,282 42,314 58,314"
     transform="matrix(3.4352329,0,0,3.3450473,-9.8662761,41.253667)" />
  <polyline
     style="fill:none;stroke:#000000;stroke-width:2.6117897;stroke-linecap:square;stroke-linejoin:round;stroke-miterlimit:4;stroke-dasharray:none"
     id="polyline76"
     points="42,314 26,314 26,266 42,266 42,218 26,218 26,234 10,234 10,170 26,170 26,122 42,122 42,138"
     transform="matrix(3.4352329,0,0,3.3450473,-9.8662761,41.253667)" />
  <polyline
     style="fill:none;stroke:#000000;stroke-width:2.6117897;stroke-linecap:square;stroke-linejoin:round;stroke-miterlimit:4;stroke-dasharray:none"
     id="polyline78"
     points="26,154 10,154 10,106 26,106 26,74 42,74 42,42"
     transform="matrix(3.4352329,0,0,3.3450473,-9.8662761,41.253667)" />
  <polyline
     style="fill:none;stroke:#000000;stroke-width:2.6117897;stroke-linecap:square;stroke-linejoin:round;stroke-miterlimit:4;stroke-dasharray:none"
     id="polyline80"
     points="26,90 42,90 42,106 58,106 58,154 42,154 42,170 58,170 58,186 26,186 26,202 58,202 58,234 90,234"
     transform="matrix(3.4352329,0,0,3.3450473,-9.8662761,41.253667)" />
  <polyline
     style="fill:none;stroke:#000000;stroke-width:2.6117897;stroke-linecap:square;stroke-linejoin:round;stroke-miterlimit:4;stroke-dasharray:none"
     id="polyline82"
     points="26,90 10,90 10,58 26,58 26,42 10,42 10,26 42,26 42,10 10,10"
     transform="matrix(3.4352329,0,0,3.3450473,-9.8662761,41.253667)" />
  <polyline
     style="fill:none;stroke:#000000;stroke-width:2.6117897;stroke-linecap:square;stroke-linejoin:round;stroke-miterlimit:4;stroke-dasharray:none"
     id="polyline84"
     points="42,250 10,250 10,330 26,330 26,346 10,346 10,362 26,362 26,378 42,378 42,362 58,362 58,378 74,378 74,346 58,346 58,330 42,330 42,346"
     transform="matrix(3.4352329,0,0,3.3450473,-9.8662761,41.253667)" />
  <polyline
     style="fill:none;stroke:#000000;stroke-width:2.6117897;stroke-linecap:square;stroke-linejoin:round;stroke-miterlimit:4;stroke-dasharray:none"
     id="polyline86"
     points="74,378 74,394 58,394"
     transform="matrix(3.4352329,0,0,3.3450473,-9.8662761,41.253667)" />
  <polyline
     style="fill:none;stroke:#000000;stroke-width:2.6117897;stroke-linecap:square;stroke-linejoin:round;stroke-miterlimit:4;stroke-dasharray:none"
     id="polyline88"
     points="42,378 42,394 10,394 10,378"
     transform="matrix(3.4352329,0,0,3.3450473,-9.8662761,41.253667)" />
  <polyline
     style="fill:none;stroke:#000000;stroke-width:2.6117897;stroke-linecap:square;stroke-linejoin:round;stroke-miterlimit:4;stroke-dasharray:none"
     id="polyline90"
     points="42,298 74,298"
     transform="matrix(3.4352329,0,0,3.3450473,-9.8662761,41.253667)" />
  <polyline
     style="fill:none;stroke:#000000;stroke-width:2.6117897;stroke-linecap:square;stroke-linejoin:round;stroke-miterlimit:4;stroke-dasharray:none"
     id="polyline92"
     points="138,298 154,298"
     transform="matrix(3.4352329,0,0,3.3450473,-9.8662761,41.253667)" />
  <polyline
     style="fill:none;stroke:#000000;stroke-width:2.6117897;stroke-linecap:square;stroke-linejoin:round;stroke-miterlimit:4;stroke-dasharray:none"
     id="polyline94"
     points="202,282 186,282 186,298 170,298 170,282 106,282 106,218 74,218"
     transform="matrix(3.4352329,0,0,3.3450473,-9.8662761,41.253667)" />
  <polyline
     style="fill:none;stroke:#000000;stroke-width:2.6117897;stroke-linecap:square;stroke-linejoin:round;stroke-miterlimit:4;stroke-dasharray:none"
     id="polyline96"
     points="90,218 90,202 74,202 74,186 106,186 106,154 90,154 90,170 74,170 74,90 58,90 58,74 122,74 122,26 106,26 106,58 90,58 90,42 74,42 74,58 58,58 58,10 90,10 90,26 74,26"
     transform="matrix(3.4352329,0,0,3.3450473,-9.8662761,41.253667)" />
  <polyline
     style="fill:none;stroke:#000000;stroke-width:2.6117897;stroke-linecap:square;stroke-linejoin:round;stroke-miterlimit:4;stroke-dasharray:none"
     id="polyline98"
     points="122,42 154,42 154,74 138,74 138,106 122,106 122,90"
     transform="matrix(3.4352329,0,0,3.3450473,-9.8662761,41.253667)" />
  <polyline
     style="fill:none;stroke:#000000;stroke-width:2.6117897;stroke-linecap:square;stroke-linejoin:round;stroke-miterlimit:4;stroke-dasharray:none"
     id="polyline100"
     points="138,90 154,90 154,106 202,106 202,90 170,90 170,74 186,74"
     transform="matrix(3.4352329,0,0,3.3450473,-9.8662761,41.253667)" />
  <polyline
     style="fill:none;stroke:#000000;stroke-width:2.6117897;stroke-linecap:square;stroke-linejoin:round;stroke-miterlimit:4;stroke-dasharray:none"
     id="polyline102"
     points="202,90 234,90 234,74"
     transform="matrix(3.4352329,0,0,3.3450473,-9.8662761,41.253667)" />
  <polyline
     style="fill:none;stroke:#000000;stroke-width:2.6117897;stroke-linecap:square;stroke-linejoin:round;stroke-miterlimit:4;stroke-dasharray:none"
     id="polyline104"
     points="218,90 218,106 250,106"
     transform="matrix(3.4352329,0,0,3.3450473,-9.8662761,41.253667)" />
  <polyline
     style="fill:none;stroke:#000000;stroke-width:2.6117897;stroke-linecap:square;stroke-linejoin:round;stroke-miterlimit:4;stroke-dasharray:none"
     id="polyline106"
     points="138,74 138,58"
     transform="matrix(3.4352329,0,0,3.3450473,-9.8662761,41.253667)" />
  <polyline
     style="fill:none;stroke:#000000;stroke-width:2.6117897;stroke-linecap:square;stroke-linejoin:round;stroke-miterlimit:4;stroke-dasharray:none"
     id="polyline108"
     points="138,42 138,26 154,26 154,10 106,10"
     transform="matrix(3.4352329,0,0,3.3450473,-9.8662761,41.253667)" />
  <polyline
     style="fill:none;stroke:#000000;stroke-width:2.6117897;stroke-linecap:square;stroke-linejoin:round;stroke-miterlimit:4;stroke-dasharray:none"
     id="polyline110"
     points="74,90 106,90 106,138 90,138 90,106"
     transform="matrix(3.4352329,0,0,3.3450473,-9.8662761,41.253667)" />
  <polyline
     style="fill:none;stroke:#000000;stroke-width:2.6117897;stroke-linecap:square;stroke-linejoin:round;stroke-miterlimit:4;stroke-dasharray:none"
     id="polyline112"
     points="106,186 106,202"
     transform="matrix(3.4352329,0,0,3.3450473,-9.8662761,41.253667)" />
  <polyline
     style="fill:none;stroke:#000000;stroke-width:2.6117897;stroke-linecap:square;stroke-linejoin:round;stroke-miterlimit:4;stroke-dasharray:none"
     id="polyline114"
     points="106,250 90,250 90,266 74,266 74,250 58,250 58,266"
     transform="matrix(3.4352329,0,0,3.3450473,-9.8662761,41.253667)" />
  <ellipse
     style="opacity:1;fill:#ff0000;fill-opacity:1;stroke:none;stroke-width:8.85354996;stroke-linecap:round;stroke-linejoin:bevel;stroke-miterlimit:4;stroke-dasharray:none;stroke-opacity:1;paint-order:normal"
     id="path834-3"
     cx="683.75238"
     cy="36.533745"
     rx="16.37224"
     ry="16.533743" />
  <path
     style="fill:none;fill-rule:evenodd;stroke:#000000;stroke-width:8.85354996;stroke-linecap:butt;stroke-linejoin:miter;stroke-miterlimit:4;stroke-dasharray:none;stroke-opacity:1"
     d="m 684.19807,906.35746 -0.1473,51.43917"
     id="path998"
     inkscape:connector-type="polyline"
     inkscape:connector-curvature="0" />
  <ellipse
     style="opacity:1;fill:#00ff00;fill-opacity:1;stroke:none;stroke-width:8.85354996;stroke-linecap:round;stroke-linejoin:bevel;stroke-miterlimit:4;stroke-dasharray:none;stroke-opacity:1;paint-order:normal"
     id="path834-3-3"
     cx="683.67828"
     cy="893.7041"
     rx="16.37224"
     ry="16.533743" />
  <path
     style="fill:none;fill-rule:evenodd;stroke:#000000;stroke-width:8.85400009;stroke-linecap:butt;stroke-linejoin:miter;stroke-miterlimit:4;stroke-dasharray:none;stroke-opacity:1"
     d="m 903.42773,953.21145 0.47795,-557.38277"
     id="path930"
     inkscape:connector-type="polyline"
     inkscape:connector-curvature="0" />
  <path
     style="fill:none;fill-rule:evenodd;stroke:#000000;stroke-width:8.854;stroke-linecap:round;stroke-linejoin:miter;stroke-miterlimit:4;stroke-dasharray:none;stroke-opacity:1"
     d="M 688.58874,953.21145 H 903.42773"
     id="path932"
     inkscape:connector-type="polyline"
     inkscape:connector-curvature="0" />
</svg>
