<?xml version="1.0" encoding="UTF-8" standalone="no"?>
<svg
   xmlns:dc="http://purl.org/dc/elements/1.1/"
   xmlns:cc="http://creativecommons.org/ns#"
   xmlns:rdf="http://www.w3.org/1999/02/22-rdf-syntax-ns#"
   xmlns:svg="http://www.w3.org/2000/svg"
   xmlns="http://www.w3.org/2000/svg"
   xmlns:sodipodi="http://sodipodi.sourceforge.net/DTD/sodipodi-0.dtd"
   xmlns:inkscape="http://www.inkscape.org/namespaces/inkscape"
   width="522.76965"
   height="543.35956"
   version="1.1"
   id="svg40"
   sodipodi:docname="maze_final1.svg"
   inkscape:export-filename="/home/freaf87/Workspaces/eclipse-workspace/DisplayImage/image/maze_final1.png"
   inkscape:export-xdpi="161"
   inkscape:export-ydpi="161"
   inkscape:version="0.92.2 (5c3e80d, 2017-08-06)">
  <metadata
     id="metadata46">
    <rdf:RDF>
      <cc:Work
         rdf:about="">
        <dc:format>image/svg+xml</dc:format>
        <dc:type
           rdf:resource="http://purl.org/dc/dcmitype/StillImage" />
        <dc:title>10 by 10 orthogonal maze</dc:title>
      </cc:Work>
    </rdf:RDF>
  </metadata>
  <defs
     id="defs44" />
  <sodipodi:namedview
     pagecolor="#ffffff"
     bordercolor="#666666"
     borderopacity="1"
     objecttolerance="10"
     gridtolerance="10"
     guidetolerance="10"
     inkscape:pageopacity="1"
     inkscape:pageshadow="2"
     inkscape:window-width="1920"
     inkscape:window-height="1011"
     id="namedview42"
     showgrid="false"
     inkscape:pagecheckerboard="true"
     fit-margin-top="20"
     fit-margin-left="20"
     fit-margin-right="20"
     fit-margin-bottom="20"
     inkscape:zoom="0.91801075"
     inkscape:cx="132.65548"
     inkscape:cy="364.99738"
     inkscape:window-x="0"
     inkscape:window-y="0"
     inkscape:window-maximized="1"
     inkscape:current-layer="svg40" />
  <title
     id="title2">10 by 10 orthogonal maze</title>
  <desc
     id="desc4">10 by 10 orthogonal maze generated by The Maze Generator Website (http://www.mazegenerator.net/).</desc>
  <g
     id="g38"
     style="fill:none;stroke:#000000;stroke-width:1.9168058;stroke-linecap:square;stroke-linejoin:round;stroke-miterlimit:4;stroke-dasharray:none"
     transform="matrix(3.2184644,0,0,3.0443709,-2.5292508,45.393316)">
    <polyline
       points="74,2 74,10 122,10 122,26 106,26 106,74 122,74 122,42 138,42 138,58 154,58 154,74 138,74 138,90 106,90 106,138 74,138 74,154 58,154 58,138 10,138 10,106 42,106 42,90 10,90 10,74 26,74 26,58 42,58 42,74 58,74 58,122 74,122 74,106 90,106 90,98"
       id="polyline6"
       style="stroke-width:1.9168058;stroke-miterlimit:4;stroke-dasharray:none" />
    <polyline
       points="26,58 10,58"
       id="polyline8"
       style="stroke-width:1.9168058;stroke-miterlimit:4;stroke-dasharray:none" />
    <polyline
       points="42,138 42,122 26,122"
       id="polyline10"
       style="stroke-width:1.9168058;stroke-miterlimit:4;stroke-dasharray:none" />
    <polyline
       points="58,154 10,154"
       id="polyline12"
       style="stroke-width:1.9168058;stroke-miterlimit:4;stroke-dasharray:none" />
    <polyline
       points="106,138 122,138 122,154 90,154"
       id="polyline14"
       style="stroke-width:1.9168058;stroke-miterlimit:4;stroke-dasharray:none" />
    <polyline
       points="106,122 90,122"
       id="polyline16"
       style="stroke-width:1.9168058;stroke-miterlimit:4;stroke-dasharray:none" />
    <polyline
       points="106,106 138,106 138,122 154,122 154,90"
       id="polyline18"
       style="stroke-width:1.9168058;stroke-miterlimit:4;stroke-dasharray:none" />
    <polyline
       points="154,122 154,154 138,154 138,138"
       id="polyline20"
       style="stroke-width:1.9168058;stroke-miterlimit:4;stroke-dasharray:none" />
    <polyline
       points="122,106 122,122"
       id="polyline22"
       style="stroke-width:1.9168058;stroke-miterlimit:4;stroke-dasharray:none" />
    <polyline
       points="154,58 154,42"
       id="polyline24"
       style="stroke-width:1.9168058;stroke-miterlimit:4;stroke-dasharray:none" />
    <polyline
       points="122,10 154,10 154,26 138,26"
       id="polyline26"
       style="stroke-width:1.9168058;stroke-miterlimit:4;stroke-dasharray:none" />
    <polyline
       points="90,10 90,58 74,58 74,42"
       id="polyline28"
       style="stroke-width:1.9168058;stroke-miterlimit:4;stroke-dasharray:none" />
    <polyline
       points="74,10 58,10"
       id="polyline30"
       style="stroke-width:1.9168058;stroke-miterlimit:4;stroke-dasharray:none" />
    <polyline
       points="74,10 74,26 58,26 58,58"
       id="polyline32"
       style="stroke-width:1.9168058;stroke-miterlimit:4;stroke-dasharray:none" />
    <polyline
       points="58,42 42,42 42,10 26,10 26,26 10,26 10,42 26,42"
       id="polyline34"
       style="stroke-width:1.9168058;stroke-miterlimit:4;stroke-dasharray:none" />
    <polyline
       points="10,26 10,10"
       id="polyline36"
       style="stroke-width:1.9168058;stroke-miterlimit:4;stroke-dasharray:none" />
  </g>
  <ellipse
     style="opacity:1;fill:#ff0000;fill-opacity:1;stroke:none;stroke-width:3.66628385;stroke-linecap:round;stroke-linejoin:bevel;stroke-miterlimit:4;stroke-dasharray:none;stroke-opacity:1;paint-order:normal"
     id="path834-6"
     cx="235.36459"
     cy="44.550369"
     rx="8.0339127"
     ry="8.2106886"
     inkscape:export-filename="/home/freaf87/Workspaces/eclipse-workspace/DisplayImage/image/path834.png"
     inkscape:export-xdpi="161"
     inkscape:export-ydpi="161" />
  <ellipse
     style="opacity:1;fill:#00ff00;fill-opacity:1;stroke:none;stroke-width:3.4204042;stroke-linecap:round;stroke-linejoin:bevel;stroke-miterlimit:4;stroke-dasharray:none;stroke-opacity:1;paint-order:normal"
     id="path834-6-6"
     cx="287.66446"
     cy="335.19244"
     rx="7.4892564"
     ry="7.6660323"
     inkscape:export-filename="/home/freaf87/Workspaces/eclipse-workspace/DisplayImage/image/path834.png"
     inkscape:export-xdpi="161"
     inkscape:export-ydpi="161"
     inkscape:transform-center-x="35.317113"
     inkscape:transform-center-y="-35.464002" />
</svg>
