<?xml version="1.0" encoding="UTF-8" standalone="no"?>
<svg
   xmlns:dc="http://purl.org/dc/elements/1.1/"
   xmlns:cc="http://creativecommons.org/ns#"
   xmlns:rdf="http://www.w3.org/1999/02/22-rdf-syntax-ns#"
   xmlns:svg="http://www.w3.org/2000/svg"
   xmlns="http://www.w3.org/2000/svg"
   xmlns:sodipodi="http://sodipodi.sourceforge.net/DTD/sodipodi-0.dtd"
   xmlns:inkscape="http://www.inkscape.org/namespaces/inkscape"
   width="350.92212"
   height="118"
   version="1.1"
   id="svg36"
   sodipodi:docname="7_20_maze3_original.svg"
   inkscape:version="0.92.2 (5c3e80d, 2017-08-06)"
   inkscape:export-filename="/home/freaf87/Workspaces/eclipse-workspace/DisplayImage/image/3/7_20_maze3_original.png"
   inkscape:export-xdpi="161"
   inkscape:export-ydpi="161">
  <metadata
     id="metadata42">
    <rdf:RDF>
      <cc:Work
         rdf:about="">
        <dc:format>image/svg+xml</dc:format>
        <dc:type
           rdf:resource="http://purl.org/dc/dcmitype/StillImage" />
        <dc:title>7 by 20 orthogonal maze</dc:title>
      </cc:Work>
    </rdf:RDF>
  </metadata>
  <defs
     id="defs40" />
  <sodipodi:namedview
     pagecolor="#ffffff"
     bordercolor="#666666"
     borderopacity="1"
     objecttolerance="10"
     gridtolerance="10"
     guidetolerance="10"
     inkscape:pageopacity="1"
     inkscape:pageshadow="2"
     inkscape:window-width="956"
     inkscape:window-height="1011"
     id="namedview38"
     showgrid="false"
     fit-margin-top="10"
     fit-margin-left="10"
     fit-margin-right="10"
     fit-margin-bottom="10"
     inkscape:zoom="1.0301062"
     inkscape:cx="189.69881"
     inkscape:cy="191.01751"
     inkscape:window-x="960"
     inkscape:window-y="0"
     inkscape:window-maximized="0"
     inkscape:current-layer="svg36" />
  <title
     id="title2">7 by 20 orthogonal maze</title>
  <desc
     id="desc4">7 by 20 orthogonal maze generated by The Maze Generator Website (http://www.mazegenerator.net/).</desc>
  <g
     id="g34"
     transform="rotate(-90,71.461063,45.538937)"
     style="fill:none;stroke:#000000;stroke-width:2;stroke-linecap:square;stroke-linejoin:round">
    <polyline
       points="58,2 58,74 42,74 42,90 58,90 58,106 26,106 26,122 74,122 74,74 90,74 90,106 106,106 106,122 90,122 90,138 106,138 106,154 90,154 90,170 106,170 106,186 90,186 90,202 106,202 106,282 90,282 90,314 74,314 74,298 58,298 58,250 90,250 90,234 26,234 26,218 10,218 10,170 26,170 26,186 42,186 42,202 58,202 58,178"
       id="polyline6" />
    <polyline
       points="10,202 26,202"
       id="polyline8" />
    <polyline
       points="74,250 74,282"
       id="polyline10" />
    <polyline
       points="74,266 90,266"
       id="polyline12" />
    <polyline
       points="74,314 42,314 42,298 26,298 26,314 10,314 10,234"
       id="polyline14" />
    <polyline
       points="10,250 42,250 42,266 26,266 26,282 42,282"
       id="polyline16" />
    <polyline
       points="106,282 106,314"
       id="polyline18" />
    <polyline
       points="106,218 90,218"
       id="polyline20" />
    <polyline
       points="90,154 74,154 74,218 42,218"
       id="polyline22" />
    <polyline
       points="90,138 26,138 26,154 10,154 10,58"
       id="polyline24" />
    <polyline
       points="26,106 26,58 42,58"
       id="polyline26" />
    <polyline
       points="58,26 90,26 90,42 106,42 106,10 74,10"
       id="polyline28" />
    <polyline
       points="74,26 74,58 106,58 106,90"
       id="polyline30" />
    <polyline
       points="58,10 42,10 42,42 10,42 10,10 26,10 26,26"
       id="polyline32" />
  </g>
  <path
     style="fill:none;fill-rule:evenodd;stroke:#000000;stroke-width:2;stroke-linecap:butt;stroke-linejoin:miter;stroke-miterlimit:4;stroke-dasharray:none;stroke-opacity:1"
     d="m 27.922127,59 h -15"
     id="path4176"
     inkscape:connector-curvature="0" />
  <circle
     style="fill:#ff0000;fill-opacity:1;stroke:#ff0000;stroke-width:2;stroke-miterlimit:4;stroke-dasharray:none;stroke-dashoffset:0;stroke-opacity:1"
     id="path4180-4"
     cx="-59.198303"
     cy="13"
     r="2"
     transform="rotate(-90)" />
  <path
     style="fill:none;fill-rule:evenodd;stroke:#000000;stroke-width:2;stroke-linecap:butt;stroke-linejoin:miter;stroke-miterlimit:4;stroke-dasharray:none;stroke-opacity:1"
     d="m 188.92213,59 h 15"
     id="path4176-3"
     inkscape:connector-curvature="0" />
  <circle
     style="fill:#00ff00;fill-opacity:1;stroke:#00ff00;stroke-width:2;stroke-miterlimit:4;stroke-dasharray:none;stroke-dashoffset:0;stroke-opacity:1"
     id="path4180"
     cx="59.27124"
     cy="-186.94107"
     r="2"
     transform="rotate(90)" />
</svg>
