<?xml version="1.0" encoding="UTF-8" standalone="no"?>
<svg
   xmlns:dc="http://purl.org/dc/elements/1.1/"
   xmlns:cc="http://creativecommons.org/ns#"
   xmlns:rdf="http://www.w3.org/1999/02/22-rdf-syntax-ns#"
   xmlns:svg="http://www.w3.org/2000/svg"
   xmlns="http://www.w3.org/2000/svg"
   xmlns:sodipodi="http://sodipodi.sourceforge.net/DTD/sodipodi-0.dtd"
   xmlns:inkscape="http://www.inkscape.org/namespaces/inkscape"
   width="370.49524"
   height="118"
   version="1.1"
   id="svg2"
   inkscape:version="0.92.2 (5c3e80d, 2017-08-06)"
   sodipodi:docname="7_20_maze1_original.svg"
   inkscape:export-filename="/home/freaf87/Workspaces/eclipse-workspace/DisplayImage/image/1/7_20_maze1_original.png"
   inkscape:export-xdpi="161"
   inkscape:export-ydpi="161">
  <metadata
     id="metadata46">
    <rdf:RDF>
      <cc:Work
         rdf:about="">
        <dc:format>image/svg+xml</dc:format>
        <dc:type
           rdf:resource="http://purl.org/dc/dcmitype/StillImage" />
        <dc:title>7 by 20 orthogonal maze</dc:title>
      </cc:Work>
    </rdf:RDF>
  </metadata>
  <defs
     id="defs44" />
  <sodipodi:namedview
     pagecolor="#ffffff"
     bordercolor="#666666"
     borderopacity="1"
     objecttolerance="10"
     gridtolerance="10"
     guidetolerance="10"
     inkscape:pageopacity="1"
     inkscape:pageshadow="2"
     inkscape:window-width="1920"
     inkscape:window-height="1011"
     id="namedview42"
     showgrid="true"
     fit-margin-top="10"
     fit-margin-left="10"
     fit-margin-right="10"
     fit-margin-bottom="10"
     inkscape:zoom="1.4567901"
     inkscape:cx="83.298322"
     inkscape:cy="95.718202"
     inkscape:window-x="0"
     inkscape:window-y="0"
     inkscape:window-maximized="1"
     inkscape:current-layer="svg2">
    <inkscape:grid
       type="xygrid"
       id="grid4174"
       originx="127.24762"
       originy="-104.9044" />
  </sodipodi:namedview>
  <title
     id="title4">7 by 20 orthogonal maze</title>
  <desc
     id="desc6">7 by 20 orthogonal maze generated by The Maze Generator Website (http://www.mazegenerator.net/).</desc>
  <g
     id="g4197"
     transform="rotate(-90,71.076001,45.923999)">
    <g
       id="g8"
       style="fill:none;stroke:#000000;stroke-width:2;stroke-linecap:square;stroke-linejoin:round">
      <polyline
         id="polyline10"
         points="58,2 58,26 10,26 10,138 26,138 26,170 42,170 42,202 74,202 74,186 90,186 90,170 106,170 106,202 90,202 90,218 106,218 106,250 74,250 74,266 90,266 90,298 58,298 58,322" />
      <polyline
         id="polyline12"
         points="90,266 106,266 106,314 74,314" />
      <polyline
         id="polyline14"
         points="106,234 58,234 58,218 42,218 42,234 26,234 26,250 42,250 42,266 10,266 10,282 26,282 26,298 10,298 10,314 42,314 42,282 74,282" />
      <polyline
         id="polyline16"
         points="58,282 58,250" />
      <polyline
         id="polyline18"
         points="10,266 10,234" />
      <polyline
         id="polyline20"
         points="74,186 58,186" />
      <polyline
         id="polyline22"
         points="74,202 74,218" />
      <polyline
         id="polyline24"
         points="42,202 26,202 26,218 10,218 10,186 26,186" />
      <polyline
         id="polyline26"
         points="42,170 42,154 58,154 58,170 74,170 74,154 106,154 106,138" />
      <polyline
         id="polyline28"
         points="26,170 10,170 10,154" />
      <polyline
         id="polyline30"
         points="26,138 42,138 42,122 26,122 26,106 42,106 42,90 74,90" />
      <polyline
         id="polyline32"
         points="58,90 58,106 90,106 90,90 106,90 106,122 90,122 90,138 58,138 58,122 74,122" />
      <polyline
         id="polyline34"
         points="10,90 26,90 26,74 74,74 74,58 90,58 90,74 106,74 106,42 74,42 74,26 90,26 90,10 74,10" />
      <polyline
         id="polyline36"
         points="90,10 106,10 106,26" />
      <polyline
         id="polyline38"
         points="42,26 42,42 58,42 58,58 26,58 26,42" />
      <polyline
         id="polyline40"
         points="58,10 10,10" />
    </g>
    <path
       inkscape:connector-curvature="0"
       id="path4176"
       d="M 58,2 V -13"
       style="fill:none;fill-rule:evenodd;stroke:#000000;stroke-width:2;stroke-linecap:butt;stroke-linejoin:miter;stroke-miterlimit:4;stroke-dasharray:none;stroke-opacity:1" />
    <path
       inkscape:connector-curvature="0"
       id="path4178"
       d="m 58,320 v 11"
       style="fill:none;fill-rule:evenodd;stroke:#000000;stroke-width:2;stroke-linecap:butt;stroke-linejoin:miter;stroke-miterlimit:4;stroke-dasharray:none;stroke-opacity:1" />
    <circle
       r="2"
       cy="332.34323"
       cx="57.940678"
       id="path4180"
       style="fill:#00ff00;fill-opacity:1;stroke:#00ff00;stroke-width:2;stroke-miterlimit:4;stroke-dasharray:none;stroke-dashoffset:0;stroke-opacity:1" />
    <circle
       r="2"
       cy="-12.152001"
       cx="58.042904"
       id="path4180-4"
       style="fill:#ff0000;fill-opacity:1;stroke:#ff0000;stroke-width:2;stroke-miterlimit:4;stroke-dasharray:none;stroke-dashoffset:0;stroke-opacity:1" />
  </g>
</svg>
