<?xml version="1.0" encoding="UTF-8" standalone="no"?>
<svg
   xmlns:dc="http://purl.org/dc/elements/1.1/"
   xmlns:cc="http://creativecommons.org/ns#"
   xmlns:rdf="http://www.w3.org/1999/02/22-rdf-syntax-ns#"
   xmlns:svg="http://www.w3.org/2000/svg"
   xmlns="http://www.w3.org/2000/svg"
   xmlns:sodipodi="http://sodipodi.sourceforge.net/DTD/sodipodi-0.dtd"
   xmlns:inkscape="http://www.inkscape.org/namespaces/inkscape"
   width="99.924042cm"
   height="414.95776cm"
   version="1.1"
   id="svg2"
   inkscape:version="0.91 r13725"
   sodipodi:docname="7_20_maze1.svg"
   inkscape:export-filename="C:\Users\uidp3645\Desktop\F2S_Picture\2\7_20_maze1_print.png"
   inkscape:export-xdpi="161"
   inkscape:export-ydpi="161">
  <metadata
     id="metadata46">
    <rdf:RDF>
      <cc:Work
         rdf:about="">
        <dc:format>image/svg+xml</dc:format>
        <dc:type
           rdf:resource="http://purl.org/dc/dcmitype/StillImage" />
        <dc:title>7 by 20 orthogonal maze</dc:title>
      </cc:Work>
    </rdf:RDF>
  </metadata>
  <defs
     id="defs44" />
  <sodipodi:namedview
     pagecolor="#ffffff"
     bordercolor="#666666"
     borderopacity="1"
     objecttolerance="10"
     gridtolerance="10"
     guidetolerance="10"
     inkscape:pageopacity="1"
     inkscape:pageshadow="2"
     inkscape:window-width="1832"
     inkscape:window-height="1173"
     id="namedview42"
     showgrid="true"
     units="cm"
     fit-margin-top="5"
     fit-margin-left="3.5"
     fit-margin-right="3.5"
     fit-margin-bottom="5"
     inkscape:zoom="0.08"
     inkscape:cx="3761.8935"
     inkscape:cy="9283.4808"
     inkscape:window-x="1679"
     inkscape:window-y="-9"
     inkscape:window-maximized="1"
     inkscape:current-layer="svg2">
    <inkscape:grid
       type="xygrid"
       id="grid4174"
       originx="19.807623"
       originy="5498.74" />
  </sodipodi:namedview>
  <title
     id="title4">7 by 20 orthogonal maze</title>
  <desc
     id="desc6">7 by 20 orthogonal maze generated by The Maze Generator Website (http://www.mazegenerator.net/).</desc>
  <g
     id="g8"
     transform="matrix(33.559562,0,0,33.559562,-176.1468,2577.0954)"
     style="fill:none;stroke:#000000;stroke-width:2.11165285;stroke-linecap:square;stroke-linejoin:round;stroke-miterlimit:4;stroke-dasharray:none">
    <polyline
       points="58,2 58,26 10,26 10,138 26,138 26,170 42,170 42,202 74,202 74,186 90,186 90,170 106,170 106,202 90,202 90,218 106,218 106,250 74,250 74,266 90,266 90,298 58,298 58,322"
       id="polyline10"
       style="stroke-width:2.11165285;stroke-miterlimit:4;stroke-dasharray:none" />
    <polyline
       points="90,266 106,266 106,314 74,314"
       id="polyline12"
       style="stroke-width:2.11165285;stroke-miterlimit:4;stroke-dasharray:none" />
    <polyline
       points="106,234 58,234 58,218 42,218 42,234 26,234 26,250 42,250 42,266 10,266 10,282 26,282 26,298 10,298 10,314 42,314 42,282 74,282"
       id="polyline14"
       style="stroke-width:2.11165285;stroke-miterlimit:4;stroke-dasharray:none" />
    <polyline
       points="58,282 58,250"
       id="polyline16"
       style="stroke-width:2.11165285;stroke-miterlimit:4;stroke-dasharray:none" />
    <polyline
       points="10,266 10,234"
       id="polyline18"
       style="stroke-width:2.11165285;stroke-miterlimit:4;stroke-dasharray:none" />
    <polyline
       points="74,186 58,186"
       id="polyline20"
       style="stroke-width:2.11165285;stroke-miterlimit:4;stroke-dasharray:none" />
    <polyline
       points="74,202 74,218"
       id="polyline22"
       style="stroke-width:2.11165285;stroke-miterlimit:4;stroke-dasharray:none" />
    <polyline
       points="42,202 26,202 26,218 10,218 10,186 26,186"
       id="polyline24"
       style="stroke-width:2.11165285;stroke-miterlimit:4;stroke-dasharray:none" />
    <polyline
       points="42,170 42,154 58,154 58,170 74,170 74,154 106,154 106,138"
       id="polyline26"
       style="stroke-width:2.11165285;stroke-miterlimit:4;stroke-dasharray:none" />
    <polyline
       points="26,170 10,170 10,154"
       id="polyline28"
       style="stroke-width:2.11165285;stroke-miterlimit:4;stroke-dasharray:none" />
    <polyline
       points="26,138 42,138 42,122 26,122 26,106 42,106 42,90 74,90"
       id="polyline30"
       style="stroke-width:2.11165285;stroke-miterlimit:4;stroke-dasharray:none" />
    <polyline
       points="58,90 58,106 90,106 90,90 106,90 106,122 90,122 90,138 58,138 58,122 74,122"
       id="polyline32"
       style="stroke-width:2.11165285;stroke-miterlimit:4;stroke-dasharray:none" />
    <polyline
       points="10,90 26,90 26,74 74,74 74,58 90,58 90,74 106,74 106,42 74,42 74,26 90,26 90,10 74,10"
       id="polyline34"
       style="stroke-width:2.11165285;stroke-miterlimit:4;stroke-dasharray:none" />
    <polyline
       points="90,10 106,10 106,26"
       id="polyline36"
       style="stroke-width:2.11165285;stroke-miterlimit:4;stroke-dasharray:none" />
    <polyline
       points="42,26 42,42 58,42 58,58 26,58 26,42"
       id="polyline38"
       style="stroke-width:2.11165285;stroke-miterlimit:4;stroke-dasharray:none" />
    <polyline
       points="58,10 10,10"
       id="polyline40"
       style="stroke-width:2.11165285;stroke-miterlimit:4;stroke-dasharray:none" />
  </g>
  <path
     style="fill:none;fill-rule:evenodd;stroke:#000000;stroke-width:70.86614227;stroke-linecap:butt;stroke-linejoin:miter;stroke-miterlimit:4;stroke-dasharray:none;stroke-opacity:1"
     d="m 1770.36,2628.7979 0,-826.25"
     id="path4176"
     inkscape:connector-curvature="0" />
  <path
     style="fill:none;fill-rule:evenodd;stroke:#000000;stroke-width:70.86614227;stroke-linecap:butt;stroke-linejoin:miter;stroke-miterlimit:4;stroke-dasharray:none;stroke-opacity:1"
     d="m 1770.2839,14145 0,-826.25"
     id="path4176-7"
     inkscape:connector-curvature="0" />
  <g
     id="g5200"
     transform="matrix(12.1412,0,0,12.1412,354.90885,177.16522)">
    <symbol
       viewBox="-43.3 -24.308 86.601 48.615"
       id="Bush_Left">
      <g
         id="g4908">
        <g
           id="g4910">
          <path
             id="path4912"
             d="m -33.888,-3.511 c 8.299,8.895 13.237,21.557 13.237,21.557 -3.489,-10.506 -7.56,-15.73 -14.272,-24.22 l 1.035,2.663 z"
             inkscape:connector-curvature="0"
             style="fill:#00963f" />
          <path
             id="path4914"
             d="m -30.487,3.161 c 0.297,2.265 2.376,11.441 2.376,11.441 l -2.153,-5.593 c -0.479,-2.881 0.761,-5.555 0.447,-7.952 l -0.67,2.104 z"
             inkscape:connector-curvature="0"
             style="fill:#00963f" />
          <path
             id="path4916"
             d="m -27.667,8.564 c 0.297,2.266 1.726,9.829 1.726,9.829 l -0.53,-3.791 c 0,-2.44 -0.212,-5.744 -0.526,-8.142 l -0.67,2.104 z"
             inkscape:connector-curvature="0"
             style="fill:#00963f" />
          <path
             id="path4918"
             d="m -24.188,13.377 c 0.216,1.381 3.051,6.613 3.051,6.613 l -2.181,-2.933 c 0,-1.487 -0.154,-3.501 -0.382,-4.963 l -0.488,1.283 z"
             inkscape:connector-curvature="0"
             style="fill:#00963f" />
          <path
             id="path4920"
             d="m -21.167,18.075 c 0.602,1.176 2.76,6.232 2.76,6.232 l -1.281,-3.51 c -0.313,-1.289 -0.958,-3.02 -1.595,-4.265 l 0.116,1.543 z"
             inkscape:connector-curvature="0"
             style="fill:#00963f" />
          <path
             id="path4922"
             d="m -26.043,10.332 c 0.297,2.266 1.726,9.828 1.726,9.828 l -1.161,-4.837 c 0,-2.441 0.42,-4.697 0.105,-7.095 l -0.67,2.104 z"
             inkscape:connector-curvature="0"
             style="fill:#00963f" />
          <path
             id="path4924"
             d="m -24.522,3.487 c 1.421,0.866 6.495,3.396 6.495,3.396 l -3.35,-2.195 C -23.151,3.523 -26.7,4.061 -28.204,3.144 l 3.682,0.343 z"
             inkscape:connector-curvature="0"
             style="fill:#00963f" />
          <path
             id="path4926"
             d="m -21.855,6.884 c 1.898,1.261 6.128,5.077 6.128,5.077 l -3.163,-2.14 c -2.187,-1.069 -5.052,-2.709 -7.062,-4.043 l 4.097,1.106 z"
             inkscape:connector-curvature="0"
             style="fill:#00963f" />
          <path
             id="path4928"
             d="m -21.837,13.088 c 1.036,0.934 3.865,6.169 3.865,6.169 l -1.263,-3.432 c -1.244,-0.811 -2.842,-2.037 -3.939,-3.025 l 1.337,0.288 z"
             inkscape:connector-curvature="0"
             style="fill:#00963f" />
          <path
             id="path4930"
             d="m -23.271,9.473 c 1.577,1.009 5.962,5.851 5.962,5.851 l -2.632,-3.877 c -1.816,-0.857 -3.47,-1.16 -5.14,-2.229 l 1.81,0.255 z"
             inkscape:connector-curvature="0"
             style="fill:#00963f" />
          <path
             id="path4932"
             d="m -32.966,0.366 c 0.297,2.265 1.6,12.736 1.6,12.736 l -1.376,-6.888 c -0.479,-2.881 0.762,-5.555 0.447,-7.952 l -0.671,2.104 z"
             inkscape:connector-curvature="0"
             style="fill:#00963f" />
          <path
             id="path4934"
             d="m -34.966,-1.264 c 0.297,2.266 1.599,12.736 1.599,12.736 l -1.376,-6.887 c -0.479,-2.882 0.761,-5.556 0.447,-7.953 l -0.67,2.104 z"
             inkscape:connector-curvature="0"
             style="fill:#00963f" />
          <path
             id="path4936"
             d="m -29.402,-0.557 c 1.549,0.605 10.179,4.284 10.179,4.284 l -4.82,-3.121 c -1.949,-0.838 -5.362,-0.453 -7.002,-1.095 l 1.643,-0.068 z"
             inkscape:connector-curvature="0"
             style="fill:#00963f" />
          <path
             id="path4938"
             d="m -29.97,-3.318 c 1.727,0.743 9.728,4.106 9.728,4.106 l -5.131,-2.746 c -2.171,-1.049 -4.612,-0.291 -6.44,-1.078 l 1.843,-0.282 z"
             inkscape:connector-curvature="0"
             style="fill:#00963f" />
        </g>
        <g
           id="g4940">
          <path
             id="path4942"
             d="m -41.108,-9.821 c 17.332,-2.827 35.766,-10.603 35.766,-10.603 -13.469,6.661 -22.757,8.744 -37.958,12.079 l 2.192,-1.476 z"
             inkscape:connector-curvature="0"
             style="fill:#00963f" />
          <path
             id="path4944"
             d="m -29.852,-13.562 c 2.399,-1.676 13.091,-8.003 13.091,-8.003 l -7.499,3.39 c -3.164,2.079 -4.231,4.895 -6.771,6.668 l 1.179,-2.055 z"
             inkscape:connector-curvature="0"
             style="fill:#00963f" />
          <path
             id="path4946"
             d="m -21.787,-16.448 c 2.399,-1.676 10.895,-7.041 10.895,-7.041 l -4.051,2.787 c -2.23,1.975 -5.483,4.535 -8.022,6.309 l 1.178,-2.055 z"
             inkscape:connector-curvature="0"
             style="fill:#00963f" />
          <path
             id="path4948"
             d="m -13.531,-18.509 c 1.501,-1.004 9.426,-3.744 9.426,-3.744 l -5.098,1.225 c -1.36,1.204 -3.371,2.751 -4.96,3.813 l 0.632,-1.294 z"
             inkscape:connector-curvature="0"
             style="fill:#00963f" />
          <path
             id="path4950"
             d="m -5.888,-20.719 c 1.742,-0.635 8.756,-3.589 8.756,-3.589 l -4.628,2.165 c -1.525,0.878 -3.821,1.938 -5.666,2.609 l 1.538,-1.185 z"
             inkscape:connector-curvature="0"
             style="fill:#00963f" />
          <path
             id="path4952"
             d="m -18.371,-17.022 c 2.399,-1.676 10.895,-7.041 10.895,-7.041 l -5.708,3.301 c -2.23,1.975 -3.826,4.021 -6.366,5.795 l 1.179,-2.055 z"
             inkscape:connector-curvature="0"
             style="fill:#00963f" />
          <path
             id="path4954"
             d="m -22.937,-10.686 c 2.367,0.047 10.307,0.671 10.307,0.671 l -5.722,0.014 c -3.032,0.008 -6.476,-2.295 -8.982,-2.345 l 4.397,1.66 z"
             inkscape:connector-curvature="0"
             style="fill:#00963f" />
          <path
             id="path4956"
             d="m -16.876,-12.029 c 3.258,-0.021 11.436,-0.882 11.436,-0.882 l -5.462,0.066 c -3.403,-0.285 -8.078,-0.468 -11.526,-0.445 l 5.552,1.261 z"
             inkscape:connector-curvature="0"
             style="fill:#00963f" />
          <path
             id="path4958"
             d="m -11.188,-17.037 c 2.003,-0.21 9.925,-2.956 9.925,-2.956 l -4.537,2.111 c -2.12,0.001 -5.014,0.151 -7.134,0.374 l 1.746,0.471 z"
             inkscape:connector-curvature="0"
             style="fill:#00963f" />
          <path
             id="path4960"
             d="m -16.082,-14.868 c 2.671,0.014 11.958,-1.595 11.958,-1.595 l -6.461,1.751 c -2.797,-0.263 -4.908,-0.889 -7.736,-0.902 l 2.239,0.746 z"
             inkscape:connector-curvature="0"
             style="fill:#00963f" />
          <path
             id="path4962"
             d="m -35.155,-12.604 c 2.399,-1.677 13.411,-9.46 13.411,-9.46 l -7.819,4.846 c -3.163,2.079 -4.231,4.895 -6.771,6.668 l 1.179,-2.054 z"
             inkscape:connector-curvature="0"
             style="fill:#00963f" />
          <path
             id="path4964"
             d="m -38.862,-12.34 c 2.399,-1.676 13.412,-9.46 13.412,-9.46 l -7.819,4.847 c -3.164,2.079 -4.231,4.894 -6.771,6.668 l 1.178,-2.055 z"
             inkscape:connector-curvature="0"
             style="fill:#00963f" />
          <path
             id="path4966"
             d="m -32.045,-9.983 c 2.271,0.326 15.205,1.893 15.205,1.893 l -8.198,-0.013 c -2.927,-0.348 -6.361,-2.455 -8.766,-2.8 l 1.759,0.92 z"
             inkscape:connector-curvature="0"
             style="fill:#00963f" />
          <path
             id="path4968"
             d="m -35.199,-8.048 c 2.595,0.308 14.541,1.798 14.541,1.798 l -8.2,-0.479 c -3.366,-0.294 -5.381,-2.191 -8.127,-2.518 l 1.786,1.199 z"
             inkscape:connector-curvature="0"
             style="fill:#00963f" />
        </g>
        <g
           id="g4970">
          <path
             id="path4972"
             d="m -20.024,-4.793 c 13.512,-1.991 27.731,-7.055 27.731,-7.055 -10.5,4.69 -17.742,6.158 -29.593,8.506 l 1.862,-1.451 z"
             inkscape:connector-curvature="0"
             style="fill:#00963f" />
          <path
             id="path4974"
             d="m -11.401,-7.015 c 1.871,-1.181 10.206,-5.637 10.206,-5.637 l -5.846,2.388 c -2.466,1.464 -3.299,3.446 -5.279,4.695 l 0.919,-1.446 z"
             inkscape:connector-curvature="0"
             style="fill:#00963f" />
          <path
             id="path4976"
             d="m -5.113,-9.048 c 1.87,-1.18 8.494,-4.958 8.494,-4.958 l -3.158,1.963 c -1.739,1.39 -4.275,3.192 -6.255,4.442 l 0.919,-1.447 z"
             inkscape:connector-curvature="0"
             style="fill:#00963f" />
          <path
             id="path4978"
             d="m 1.323,-10.499 c 1.17,-0.707 7.349,-2.637 7.349,-2.637 l -3.975,0.862 c -1.06,0.848 -2.627,1.938 -3.867,2.686 l 0.493,-0.911 z"
             inkscape:connector-curvature="0"
             style="fill:#00963f" />
          <path
             id="path4980"
             d="m 7.281,-12.056 c 1.358,-0.447 6.827,-2.527 6.827,-2.527 l -3.608,1.524 c -1.189,0.618 -2.979,1.365 -4.417,1.838 l 1.198,-0.835 z"
             inkscape:connector-curvature="0"
             style="fill:#00963f" />
          <path
             id="path4982"
             d="m -2.451,-9.452 c 1.871,-1.181 8.494,-4.959 8.494,-4.959 l -4.45,2.325 c -1.739,1.391 -2.983,2.831 -4.963,4.08 l 0.919,-1.446 z"
             inkscape:connector-curvature="0"
             style="fill:#00963f" />
          <path
             id="path4984"
             d="m -6.011,-4.99 c 1.846,0.033 8.036,0.473 8.036,0.473 l -4.46,0.01 c -2.364,0.006 -5.049,-1.616 -7.002,-1.651 l 3.426,1.168 z"
             inkscape:connector-curvature="0"
             style="fill:#00963f" />
          <path
             id="path4986"
             d="m -1.285,-5.937 c 2.54,-0.015 8.916,-0.62 8.916,-0.62 l -4.259,0.046 c -2.653,-0.2 -6.298,-0.329 -8.986,-0.313 l 4.329,0.887 z"
             inkscape:connector-curvature="0"
             style="fill:#00963f" />
          <path
             id="path4988"
             d="m 3.15,-9.463 c 1.562,-0.148 7.737,-2.082 7.737,-2.082 l -3.537,1.487 c -1.653,10e-4 -3.909,0.106 -5.562,0.263 l 1.362,0.332 z"
             inkscape:connector-curvature="0"
             style="fill:#00963f" />
          <path
             id="path4990"
             d="m -0.666,-7.936 c 2.083,0.01 9.323,-1.123 9.323,-1.123 L 3.62,-7.825 C 1.44,-8.011 -0.207,-8.451 -2.411,-8.461 l 1.745,0.525 z"
             inkscape:connector-curvature="0"
             style="fill:#00963f" />
          <path
             id="path4992"
             d="m -15.536,-6.342 c 1.871,-1.18 10.456,-6.661 10.456,-6.661 l -6.096,3.412 c -2.466,1.464 -3.299,3.446 -5.278,4.696 l 0.918,-1.447 z"
             inkscape:connector-curvature="0"
             style="fill:#00963f" />
          <path
             id="path4994"
             d="m -18.426,-6.154 c 1.87,-1.181 10.456,-6.662 10.456,-6.662 l -6.096,3.413 c -2.466,1.464 -3.299,3.446 -5.279,4.695 l 0.919,-1.446 z"
             inkscape:connector-curvature="0"
             style="fill:#00963f" />
          <path
             id="path4996"
             d="m -13.112,-4.495 c 1.771,0.229 11.854,1.332 11.854,1.332 L -7.65,-3.172 c -2.282,-0.245 -4.959,-1.729 -6.834,-1.972 l 1.372,0.649 z"
             inkscape:connector-curvature="0"
             style="fill:#00963f" />
          <path
             id="path4998"
             d="m -15.57,-3.133 c 2.022,0.217 11.336,1.267 11.336,1.267 l -6.393,-0.338 c -2.625,-0.207 -4.195,-1.543 -6.336,-1.772 l 1.393,0.843 z"
             inkscape:connector-curvature="0"
             style="fill:#00963f" />
        </g>
        <g
           id="g5000">
          <path
             id="path5002"
             d="m 1.652,-2.056 c 12.235,-1.712 25.111,-6.067 25.111,-6.067 -9.508,4.034 -16.065,5.297 -26.796,7.316 l 1.685,-1.249 z"
             inkscape:connector-curvature="0"
             style="fill:#00963f" />
          <path
             id="path5004"
             d="m 9.46,-3.967 c 1.694,-1.015 9.241,-4.848 9.241,-4.848 l -5.293,2.054 c -2.233,1.259 -2.987,2.964 -4.78,4.039 L 9.46,-3.967 Z"
             inkscape:connector-curvature="0"
             style="fill:#00963f" />
          <path
             id="path5006"
             d="m 15.154,-5.715 c 1.694,-1.016 7.691,-4.266 7.691,-4.266 l -2.859,1.688 c -1.575,1.196 -3.871,2.747 -5.664,3.821 l 0.832,-1.243 z"
             inkscape:connector-curvature="0"
             style="fill:#00963f" />
          <path
             id="path5008"
             d="m 20.982,-6.964 c 1.06,-0.607 6.654,-2.268 6.654,-2.268 l -3.598,0.742 c -0.96,0.729 -2.379,1.667 -3.501,2.311 l 0.445,-0.785 z"
             inkscape:connector-curvature="0"
             style="fill:#00963f" />
          <path
             id="path5010"
             d="m 26.378,-8.303 c 1.23,-0.385 6.182,-2.174 6.182,-2.174 l -3.268,1.312 c -1.076,0.532 -2.697,1.174 -4,1.581 l 1.086,-0.719 z"
             inkscape:connector-curvature="0"
             style="fill:#00963f" />
          <path
             id="path5012"
             d="m 17.565,-6.063 c 1.694,-1.015 7.691,-4.266 7.691,-4.266 l -4.029,2 c -1.575,1.196 -2.701,2.436 -4.494,3.511 l 0.832,-1.245 z"
             inkscape:connector-curvature="0"
             style="fill:#00963f" />
          <path
             id="path5014"
             d="m 14.342,-2.225 c 1.671,0.028 7.276,0.406 7.276,0.406 l -4.039,0.009 c -2.141,0.005 -4.572,-1.39 -6.341,-1.42 l 3.104,1.005 z"
             inkscape:connector-curvature="0"
             style="fill:#00963f" />
          <path
             id="path5016"
             d="m 18.621,-3.038 c 2.3,-0.013 8.073,-0.534 8.073,-0.534 l -3.856,0.04 c -2.402,-0.173 -5.703,-0.283 -8.137,-0.271 l 3.92,0.765 z"
             inkscape:connector-curvature="0"
             style="fill:#00963f" />
          <path
             id="path5018"
             d="m 22.637,-6.072 c 1.414,-0.127 7.006,-1.791 7.006,-1.791 l -3.203,1.279 c -1.497,10e-4 -3.54,0.092 -5.036,0.227 l 1.233,0.285 z"
             inkscape:connector-curvature="0"
             style="fill:#00963f" />
          <path
             id="path5020"
             d="m 19.182,-4.758 c 1.886,0.008 8.442,-0.966 8.442,-0.966 l -4.562,1.061 C 21.087,-4.822 19.597,-5.202 17.601,-5.21 l 1.581,0.452 z"
             inkscape:connector-curvature="0"
             style="fill:#00963f" />
          <path
             id="path5022"
             d="m 5.717,-3.387 c 1.694,-1.016 9.468,-5.731 9.468,-5.731 l -5.52,2.937 c -2.233,1.259 -2.987,2.964 -4.78,4.039 l 0.832,-1.245 z"
             inkscape:connector-curvature="0"
             style="fill:#00963f" />
          <path
             id="path5024"
             d="m 3.1,-3.227 c 1.694,-1.015 9.468,-5.73 9.468,-5.73 l -5.52,2.936 c -2.233,1.26 -2.987,2.965 -4.78,4.04 L 3.1,-3.227 Z"
             inkscape:connector-curvature="0"
             style="fill:#00963f" />
          <path
             id="path5026"
             d="m 7.912,-1.799 c 1.604,0.197 10.733,1.146 10.733,1.146 L 12.858,-0.66 C 10.792,-0.871 8.368,-2.147 6.67,-2.356 l 1.242,0.557 z"
             inkscape:connector-curvature="0"
             style="fill:#00963f" />
          <path
             id="path5028"
             d="M 5.686,-0.627 C 7.518,-0.44 15.951,0.462 15.951,0.462 L 10.162,0.172 C 7.786,-0.006 6.364,-1.155 4.425,-1.353 l 1.261,0.726 z"
             inkscape:connector-curvature="0"
             style="fill:#00963f" />
        </g>
        <g
           id="g5030">
          <path
             id="path5032"
             d="M 14.001,2.836 C 25.08,1.363 36.739,-2.384 36.739,-2.384 28.13,1.087 22.192,2.173 12.475,3.91 l 1.526,-1.074 z"
             inkscape:connector-curvature="0"
             style="fill:#00963f" />
          <path
             id="path5034"
             d="m 21.072,1.192 c 1.534,-0.873 8.368,-4.171 8.368,-4.171 l -4.793,1.767 c -2.022,1.083 -2.705,2.551 -4.328,3.475 l 0.753,-1.071 z"
             inkscape:connector-curvature="0"
             style="fill:#00963f" />
          <path
             id="path5036"
             d="m 26.228,-0.312 c 1.534,-0.874 6.964,-3.67 6.964,-3.67 l -2.589,1.453 c -1.426,1.028 -3.505,2.362 -5.128,3.287 l 0.753,-1.07 z"
             inkscape:connector-curvature="0"
             style="fill:#00963f" />
          <path
             id="path5038"
             d="m 31.505,-1.386 c 0.96,-0.523 6.026,-1.951 6.026,-1.951 l -3.259,0.638 c -0.869,0.628 -2.154,1.434 -3.17,1.987 l 0.403,-0.674 z"
             inkscape:connector-curvature="0"
             style="fill:#00963f" />
          <path
             id="path5040"
             d="m 36.391,-2.538 c 1.114,-0.331 5.598,-1.87 5.598,-1.87 l -2.959,1.129 c -0.975,0.457 -2.442,1.009 -3.622,1.359 l 0.983,-0.618 z"
             inkscape:connector-curvature="0"
             style="fill:#00963f" />
          <path
             id="path5042"
             d="m 28.411,-0.611 c 1.534,-0.873 6.964,-3.669 6.964,-3.669 l -3.649,1.72 C 30.3,-1.531 29.28,-0.465 27.657,0.46 l 0.754,-1.071 z"
             inkscape:connector-curvature="0"
             style="fill:#00963f" />
          <path
             id="path5044"
             d="m 25.492,2.69 c 1.513,0.024 6.589,0.35 6.589,0.35 L 28.423,3.047 C 26.485,3.052 24.283,1.852 22.681,1.825 l 2.811,0.865 z"
             inkscape:connector-curvature="0"
             style="fill:#00963f" />
          <path
             id="path5046"
             d="m 29.367,1.99 c 2.083,-0.011 7.31,-0.459 7.31,-0.459 L 33.185,1.565 C 31.01,1.417 28.021,1.322 25.817,1.333 l 3.55,0.657 z"
             inkscape:connector-curvature="0"
             style="fill:#00963f" />
          <path
             id="path5048"
             d="m 33.003,-0.619 c 1.28,-0.109 6.344,-1.54 6.344,-1.54 l -2.9,1.1 c -1.355,10e-4 -3.205,0.079 -4.56,0.195 l 1.116,0.245 z"
             inkscape:connector-curvature="0"
             style="fill:#00963f" />
          <path
             id="path5050"
             d="m 29.875,0.511 c 1.708,0.008 7.645,-0.83 7.645,-0.83 L 33.39,0.593 C 31.602,0.456 30.252,0.13 28.445,0.122 l 1.43,0.389 z"
             inkscape:connector-curvature="0"
             style="fill:#00963f" />
          <path
             id="path5052"
             d="m 17.682,1.69 c 1.534,-0.873 8.573,-4.93 8.573,-4.93 l -4.999,2.525 C 19.234,0.369 18.551,1.836 16.928,2.76 l 0.754,-1.07 z"
             inkscape:connector-curvature="0"
             style="fill:#00963f" />
          <path
             id="path5054"
             d="m 15.312,1.829 c 1.533,-0.873 8.573,-4.93 8.573,-4.93 l -4.999,2.525 c -2.022,1.083 -2.705,2.55 -4.328,3.475 l 0.754,-1.07 z"
             inkscape:connector-curvature="0"
             style="fill:#00963f" />
          <path
             id="path5056"
             d="m 19.669,3.057 c 1.452,0.17 9.72,0.986 9.72,0.986 L 24.148,4.036 C 22.277,3.855 20.082,2.757 18.544,2.577 l 1.125,0.48 z"
             inkscape:connector-curvature="0"
             style="fill:#00963f" />
          <path
             id="path5058"
             d="m 17.654,4.065 c 1.658,0.16 9.295,0.937 9.295,0.937 L 21.707,4.753 C 19.556,4.6 18.268,3.61 16.512,3.44 l 1.142,0.625 z"
             inkscape:connector-curvature="0"
             style="fill:#00963f" />
        </g>
        <g
           id="g5060">
          <path
             id="path5062"
             d="M -16.823,0.146 C -9.209,6.411 -2.933,16.13 -2.933,16.13 -7.012,7.951 -10.858,4.172 -17.184,-1.957 l 0.361,2.103 z"
             inkscape:connector-curvature="0"
             style="fill:#00963f" />
          <path
             id="path5064"
             d="m -12.52,5.146 c 0.525,1.819 3.334,9.083 3.334,9.083 L -11.588,9.912 C -12.335,7.609 -11.716,5.266 -12.272,3.34 l -0.248,1.806 z"
             inkscape:connector-curvature="0"
             style="fill:#00963f" />
          <path
             id="path5066"
             d="m -9.624,9.226 c 0.525,1.82 2.619,7.842 2.619,7.842 L -7.909,14.027 C -8.226,12.026 -8.819,9.346 -9.375,7.42 l -0.249,1.806 z"
             inkscape:connector-curvature="0"
             style="fill:#00963f" />
          <path
             id="path5068"
             d="m -6.292,12.74 c 0.347,1.105 3.232,5.044 3.232,5.044 l -2.078,-2.135 c -0.193,-1.22 -0.574,-2.851 -0.942,-4.021 l -0.212,1.112 z"
             inkscape:connector-curvature="0"
             style="fill:#00963f" />
          <path
             id="path5070"
             d="m -3.331,16.218 c 0.621,0.89 2.957,4.768 2.957,4.768 l -1.453,-2.719 c -0.411,-1.018 -1.138,-2.355 -1.795,-3.298 l 0.291,1.249 z"
             inkscape:connector-curvature="0"
             style="fill:#00963f" />
          <path
             id="path5072"
             d="m -8.131,10.474 c 0.525,1.819 2.619,7.841 2.619,7.841 l -1.532,-3.82 c -0.317,-2 -0.283,-3.9 -0.839,-5.827 l -0.248,1.806 z"
             inkscape:connector-curvature="0"
             style="fill:#00963f" />
          <path
             id="path5074"
             d="m -7.835,4.678 c 1.218,0.534 5.496,1.982 5.496,1.982 L -5.231,5.273 C -6.763,4.538 -9.455,5.416 -10.745,4.85 l 2.91,-0.172 z"
             inkscape:connector-curvature="0"
             style="fill:#00963f" />
          <path
             id="path5076"
             d="m -5.318,7.132 c 1.641,0.8 5.428,3.405 5.428,3.405 L -2.629,9.174 C -4.47,8.566 -6.913,7.576 -8.65,6.73 l 3.332,0.402 z"
             inkscape:connector-curvature="0"
             style="fill:#00963f" />
          <path
             id="path5078"
             d="m -4.499,12.213 c 0.928,0.638 3.809,4.58 3.809,4.58 l -1.429,-2.657 c -1.073,-0.511 -2.477,-1.318 -3.459,-1.994 l 1.079,0.071 z"
             inkscape:connector-curvature="0"
             style="fill:#00963f" />
          <path
             id="path5080"
             d="m -6.085,9.428 c 1.358,0.633 5.4,4.06 5.4,4.06 l -2.551,-2.853 c -1.525,-0.479 -2.852,-0.522 -4.29,-1.192 l 1.441,-0.015 z"
             inkscape:connector-curvature="0"
             style="fill:#00963f" />
          <path
             id="path5082"
             d="m -14.812,3.16 c 0.525,1.82 2.897,10.24 2.897,10.24 L -13.88,7.925 c -0.746,-2.302 -0.128,-4.646 -0.684,-6.572 l -0.248,1.807 z"
             inkscape:connector-curvature="0"
             style="fill:#00963f" />
          <path
             id="path5084"
             d="m -16.581,2.071 c 0.525,1.82 2.898,10.24 2.898,10.24 L -15.648,6.836 C -16.395,4.534 -15.776,2.19 -16.333,0.264 l -0.248,1.807 z"
             inkscape:connector-curvature="0"
             style="fill:#00963f" />
          <path
             id="path5086"
             d="m -12.158,1.965 c 1.284,0.306 8.479,2.256 8.479,2.256 L -7.836,2.257 c -1.625,-0.445 -4.232,0.29 -5.592,-0.033 l 1.27,-0.259 z"
             inkscape:connector-curvature="0"
             style="fill:#00963f" />
          <path
             id="path5088"
             d="m -12.959,-0.229 c 1.441,0.396 8.104,2.166 8.104,2.166 L -9.205,0.32 c -1.826,-0.593 -3.627,0.329 -5.152,-0.09 l 1.398,-0.459 z"
             inkscape:connector-curvature="0"
             style="fill:#00963f" />
        </g>
        <g
           id="g5090">
          <path
             id="path5092"
             d="M -1.735,1.377 C 3.281,6.61 7.115,14.385 7.115,14.385 4.747,7.917 2.253,4.807 -1.853,-0.243 l 0.118,1.62 z"
             inkscape:connector-curvature="0"
             style="fill:#00963f" />
          <path
             id="path5094"
             d="m 1.003,5.443 c 0.254,1.415 1.776,7.109 1.776,7.109 L 1.352,9.122 C 0.972,7.327 1.569,5.584 1.3,4.086 L 1.003,5.443 Z"
             inkscape:connector-curvature="0"
             style="fill:#00963f" />
          <path
             id="path5096"
             d="m 2.798,8.724 c 0.254,1.415 1.348,6.121 1.348,6.121 L 3.703,12.478 C 3.61,10.938 3.365,8.864 3.096,7.366 L 2.798,8.724 Z"
             inkscape:connector-curvature="0"
             style="fill:#00963f" />
          <path
             id="path5098"
             d="m 4.943,11.601 c 0.174,0.861 1.972,4.033 1.972,4.033 L 5.574,13.883 C 5.517,12.945 5.354,11.682 5.169,10.77 l -0.226,0.831 z"
             inkscape:connector-curvature="0"
             style="fill:#00963f" />
          <path
             id="path5100"
             d="m 6.825,14.427 c 0.384,0.715 1.793,3.807 1.793,3.807 L 7.762,16.078 C 7.536,15.279 7.107,14.218 6.7,13.461 l 0.125,0.966 z"
             inkscape:connector-curvature="0"
             style="fill:#00963f" />
          <path
             id="path5102"
             d="m 3.781,9.765 c 0.254,1.415 1.348,6.121 1.348,6.121 L 4.29,12.887 C 4.197,11.348 4.347,9.906 4.078,8.408 L 3.781,9.765 Z"
             inkscape:connector-curvature="0"
             style="fill:#00963f" />
          <path
             id="path5104"
             d="m 4.377,5.378 c 0.834,0.481 3.79,1.847 3.79,1.847 L 6.195,5.992 C 5.151,5.339 3.172,5.839 2.289,5.329 l 2.088,0.049 z"
             inkscape:connector-curvature="0"
             style="fill:#00963f" />
          <path
             id="path5106"
             d="m 6.01,7.399 c 1.118,0.709 3.647,2.924 3.647,2.924 L 7.793,9.117 C 6.52,8.542 4.843,7.639 3.659,6.888 L 6.01,7.399 Z"
             inkscape:connector-curvature="0"
             style="fill:#00963f" />
          <path
             id="path5108"
             d="m 6.257,11.312 c 0.62,0.542 2.414,3.716 2.414,3.716 L 7.828,12.92 C 7.097,12.465 6.148,11.765 5.493,11.191 l 0.764,0.121 z"
             inkscape:connector-curvature="0"
             style="fill:#00963f" />
          <path
             id="path5110"
             d="m 5.311,9.097 c 0.927,0.564 3.583,3.419 3.583,3.419 L 7.263,10.19 C 6.207,9.733 5.263,9.617 4.282,9.018 l 1.029,0.079 z"
             inkscape:connector-curvature="0"
             style="fill:#00963f" />
          <path
             id="path5112"
             d="m -0.5,3.793 c 0.254,1.416 1.388,7.961 1.388,7.961 L -0.151,7.473 C -0.531,5.677 0.066,3.934 -0.203,2.436 L -0.5,3.793 Z"
             inkscape:connector-curvature="0"
             style="fill:#00963f" />
          <path
             id="path5114"
             d="m -1.69,2.856 c 0.254,1.415 1.388,7.961 1.388,7.961 L -1.341,6.536 C -1.721,4.74 -1.124,2.997 -1.393,1.499 L -1.69,2.856 Z"
             inkscape:connector-curvature="0"
             style="fill:#00963f" />
          <path
             id="path5116"
             d="m 1.472,3.049 c 0.896,0.312 5.9,2.239 5.9,2.239 L 4.537,3.539 C 3.407,3.099 1.498,3.497 0.549,3.167 L 1.472,3.049 Z"
             inkscape:connector-curvature="0"
             style="fill:#00963f" />
          <path
             id="path5118"
             d="M 1.047,1.333 C 2.048,1.724 6.685,3.48 6.685,3.48 L 3.689,1.981 C 2.425,1.419 1.079,2.007 0.019,1.594 L 1.047,1.333 Z"
             inkscape:connector-curvature="0"
             style="fill:#00963f" />
        </g>
        <g
           id="g5120">
          <path
             id="path5122"
             d="M 10.392,4.123 C 15.719,8.621 19.531,15.07 19.531,15.07 17.291,9.758 14.678,7.116 10.369,2.823 l 0.023,1.3 z"
             inkscape:connector-curvature="0"
             style="fill:#00963f" />
          <path
             id="path5124"
             d="m 13.217,7.543 c 0.191,1.146 1.526,5.786 1.526,5.786 L 13.361,10.501 C 13.054,9.044 13.85,7.692 13.648,6.48 l -0.431,1.063 z"
             inkscape:connector-curvature="0"
             style="fill:#00963f" />
          <path
             id="path5126"
             d="m 15.027,10.275 c 0.19,1.146 1.108,4.971 1.108,4.971 l -0.34,-1.917 c 0,-1.234 -0.136,-2.904 -0.338,-4.117 l -0.43,1.063 z"
             inkscape:connector-curvature="0"
             style="fill:#00963f" />
          <path
             id="path5128"
             d="m 17.261,12.709 c 0.139,0.698 1.958,3.345 1.958,3.345 L 17.82,14.571 c 0,-0.752 -0.099,-1.771 -0.246,-2.51 l -0.313,0.648 z"
             inkscape:connector-curvature="0"
             style="fill:#00963f" />
          <path
             id="path5130"
             d="m 19.2,15.085 c 0.386,0.595 1.772,3.151 1.772,3.151 L 20.15,16.462 C 19.949,15.81 19.535,14.936 19.126,14.306 l 0.074,0.779 z"
             inkscape:connector-curvature="0"
             style="fill:#00963f" />
          <path
             id="path5132"
             d="m 16.07,11.17 c 0.19,1.145 1.108,4.97 1.108,4.97 l -0.746,-2.446 c 0,-1.234 0.27,-2.375 0.068,-3.588 l -0.43,1.064 z"
             inkscape:connector-curvature="0"
             style="fill:#00963f" />
          <path
             id="path5134"
             d="m 17.046,7.708 c 0.912,0.438 4.169,1.718 4.169,1.718 l -2.15,-1.11 C 17.926,7.727 15.648,8 14.683,7.536 l 2.363,0.172 z"
             inkscape:connector-curvature="0"
             style="fill:#00963f" />
          <path
             id="path5136"
             d="m 18.758,9.426 c 1.219,0.638 3.934,2.567 3.934,2.567 l -2.03,-1.082 C 19.258,10.37 17.419,9.542 16.129,8.866 l 2.629,0.56 z"
             inkscape:connector-curvature="0"
             style="fill:#00963f" />
          <path
             id="path5138"
             d="m 18.77,12.562 c 0.666,0.473 2.481,3.12 2.481,3.12 L 20.44,13.947 c -0.798,-0.41 -1.825,-1.03 -2.529,-1.53 l 0.859,0.145 z"
             inkscape:connector-curvature="0"
             style="fill:#00963f" />
          <path
             id="path5140"
             d="m 17.849,10.734 c 1.012,0.511 3.828,2.959 3.828,2.959 L 19.988,11.732 C 18.822,11.299 17.76,11.146 16.689,10.606 l 1.16,0.128 z"
             inkscape:connector-curvature="0"
             style="fill:#00963f" />
          <path
             id="path5142"
             d="m 11.626,6.13 c 0.19,1.146 1.026,6.44 1.026,6.44 L 11.769,9.088 c -0.307,-1.457 0.489,-2.81 0.287,-4.021 l -0.43,1.063 z"
             inkscape:connector-curvature="0"
             style="fill:#00963f" />
          <path
             id="path5144"
             d="m 10.342,5.306 c 0.19,1.146 1.027,6.44 1.027,6.44 L 10.485,8.264 c -0.307,-1.457 0.489,-2.81 0.287,-4.021 l -0.43,1.063 z"
             inkscape:connector-curvature="0"
             style="fill:#00963f" />
          <path
             id="path5146"
             d="M 13.914,5.663 C 14.908,5.97 20.448,7.83 20.448,7.83 L 17.354,6.251 C 16.103,5.828 13.912,6.022 12.859,5.698 l 1.055,-0.035 z"
             inkscape:connector-curvature="0"
             style="fill:#00963f" />
          <path
             id="path5148"
             d="m 13.549,4.267 c 1.108,0.376 6.245,2.077 6.245,2.077 L 16.5,4.954 C 15.106,4.424 13.54,4.808 12.366,4.409 l 1.183,-0.142 z"
             inkscape:connector-curvature="0"
             style="fill:#00963f" />
        </g>
        <g
           id="g5150">
          <path
             id="path5152"
             d="m 22.362,7.215 c 9.256,2.037 17.473,6.526 17.473,6.526 C 34.255,9.674 29.5,8.267 21.691,6.004 l 0.671,1.211 z"
             inkscape:connector-curvature="0"
             style="fill:#00963f" />
          <path
             id="path5154"
             d="m 27.781,9.267 c 0.817,0.997 4.87,4.805 4.87,4.805 L 29.429,11.985 C 28.304,10.743 28.689,9.147 27.824,8.092 l -0.043,1.175 z"
             inkscape:connector-curvature="0"
             style="fill:#00963f" />
          <path
             id="path5156"
             d="m 31.521,11.089 c 0.817,0.997 3.916,4.211 3.916,4.211 L 34.042,13.64 C 33.433,12.482 32.429,10.97 31.564,9.914 l -0.043,1.175 z"
             inkscape:connector-curvature="0"
             style="fill:#00963f" />
          <path
             id="path5158"
             d="m 35.671,12.457 c 0.528,0.599 4.237,2.336 4.237,2.336 L 37.327,13.976 C 36.955,13.269 36.323,12.354 35.764,11.72 l -0.093,0.737 z"
             inkscape:connector-curvature="0"
             style="fill:#00963f" />
          <path
             id="path5160"
             d="m 39.405,13.892 c 0.804,0.4 3.896,2.231 3.896,2.231 l -1.962,-1.328 c -0.587,-0.53 -1.566,-1.181 -2.417,-1.604 l 0.483,0.701 z"
             inkscape:connector-curvature="0"
             style="fill:#00963f" />
          <path
             id="path5162"
             d="m 33.338,11.5 c 0.817,0.997 3.916,4.211 3.916,4.211 l -2.191,-1.99 c -0.609,-1.159 -0.816,-2.34 -1.681,-3.396 L 33.338,11.5 Z"
             inkscape:connector-curvature="0"
             style="fill:#00963f" />
          <path
             id="path5164"
             d="m 32.921,7.851 c 1.421,0.037 6.354,-0.098 6.354,-0.098 L 35.887,7.593 C 34.092,7.507 31.218,8.697 29.713,8.657 l 3.208,-0.806 z"
             inkscape:connector-curvature="0"
             style="fill:#00963f" />
          <path
             id="path5166"
             d="m 36.029,8.761 c 1.925,0.099 6.463,0.797 6.463,0.797 L 39.277,9.375 C 37.156,9.442 34.318,9.419 32.28,9.314 l 3.749,-0.553 z"
             inkscape:connector-curvature="0"
             style="fill:#00963f" />
          <path
             id="path5168"
             d="m 37.593,11.701 c 1.112,0.17 4.817,1.91 4.817,1.91 l -1.928,-1.297 c -1.256,-0.057 -2.918,-0.218 -4.095,-0.398 l 1.206,-0.215 z"
             inkscape:connector-curvature="0"
             style="fill:#00963f" />
          <path
             id="path5170"
             d="m 35.475,10.362 c 1.589,0.064 6.515,1.207 6.515,1.207 l -3.199,-1.146 c -1.753,0.071 -3.232,0.362 -4.914,0.295 l 1.598,-0.356 z"
             inkscape:connector-curvature="0"
             style="fill:#00963f" />
          <path
             id="path5172"
             d="m 24.982,8.593 c 0.817,0.997 4.534,5.624 4.534,5.624 L 26.631,11.31 C 25.506,10.069 25.89,8.473 25.026,7.418 l -0.044,1.175 z"
             inkscape:connector-curvature="0"
             style="fill:#00963f" />
          <path
             id="path5174"
             d="m 22.879,8.346 c 0.817,0.997 4.534,5.624 4.534,5.624 L 24.528,11.064 C 23.403,9.822 23.787,8.226 22.923,7.171 l -0.044,1.175 z"
             inkscape:connector-curvature="0"
             style="fill:#00963f" />
          <path
             id="path5176"
             d="m 27.773,7.216 c 1.465,-0.12 9.7,-0.646 9.7,-0.646 L 32.607,6.358 c -1.861,0.115 -4.66,1.196 -6.21,1.324 l 1.376,-0.466 z"
             inkscape:connector-curvature="0"
             style="fill:#00963f" />
          <path
             id="path5178"
             d="M 26.603,6.055 C 28.252,5.953 35.875,5.444 35.875,5.444 L 30.84,5.49 c -2.103,0.074 -3.983,1.076 -5.729,1.185 l 1.492,-0.62 z"
             inkscape:connector-curvature="0"
             style="fill:#00963f" />
        </g>
      </g>
    </symbol>
    <g
       id="Protection_Area">
      <rect
         id="rect5181"
         height="62.080002"
         width="201.883"
         x="0.001"
         y="0"
         style="fill:none" />
    </g>
    <g
       id="Logo">
      <g
         id="g5184">
        <g
           id="g5186">
          <path
             id="path5188"
             d="m 186.297,39.516 -23.097,0 0,-0.758 23.097,0 0,0.758 z m -11.56,-4.399 2.175,-2.08 0.898,0.898 -2.341,1.986 c -0.189,0.236 -0.331,0.615 -0.449,0.852 l -1.726,0 c 0.096,-0.638 0.994,-1.441 1.443,-1.656 l 0,0 z m -7.258,-13.283 c -0.071,0.023 -1.797,0.496 -1.797,0.496 0,0 -0.804,0.307 -1.159,0.543 -0.354,0.236 -0.756,0.639 -0.78,0.852 l 1.537,0.354 c 0.236,-0.26 0.496,-0.543 0.732,-0.732 l 0.355,-0.166 1.276,-1.299 c 0.002,-0.001 -0.045,-0.071 -0.164,-0.048 l 0,0 z m 10.45,4.23 c -0.993,-1.088 -1.82,-2.104 -2.624,-3.309 0.52,-0.994 0.898,-3.617 0.662,-4.633 -0.094,-0.309 -0.945,-1.443 -1.087,-1.607 -0.213,-0.215 -0.898,-0.994 -1.229,-0.994 -0.071,0 -0.142,0.023 -0.166,0.047 l 0.095,0.875 c -0.922,0.592 -2.127,1.395 -3.215,2.199 0,0.307 0.023,0.779 0.047,0.945 0.166,0.141 0.355,0.26 0.567,0.33 0.426,-0.07 1.75,-0.402 2.104,-0.354 l -1.3,1.961 -1.49,1.064 -1.867,-0.592 c -0.118,-0.023 -0.236,0 -0.307,0.096 l -1.372,1.488 c -0.071,0.07 -0.118,0.143 -0.118,0.309 l -0.047,1.678 c 0,0 -0.023,0.26 -0.023,0.543 0,1.205 0.544,1.773 0.544,1.773 L 168,26.584 c -0.118,-0.188 -0.331,-0.709 -0.378,-0.945 0,-0.047 0.023,-1.441 0.023,-1.441 l 0.875,-0.639 2.317,1.631 c 0,0 0.638,1.182 1.253,1.893 0.402,0.496 2.411,1.842 3.38,2.41 0.095,0.52 0.308,1.371 0.473,1.82 l 2.837,2.908 -1.679,2.104 c -0.591,0.377 -1.158,1.064 -1.111,1.701 l 1.939,0 0.212,-1.111 2.317,-2.576 c 0.118,-0.143 0.118,-0.213 0.047,-0.426 l -0.662,-2.221 c 0.332,-0.379 1.04,-1.324 1.04,-2.459 0,-2.057 -2.245,-2.577 -2.954,-3.169 l 0,0 z m 3.64,3.428 c -0.142,-0.543 -0.354,-1.158 -0.52,-1.465 0,0 0.094,-0.096 0.284,0.023 0.189,0.117 1.395,0.945 1.395,0.945 0.614,0.898 0.993,4.586 1.017,5.91 -0.567,-0.262 -1.371,-0.711 -1.892,-1.207 l -0.284,-4.206 z"
             inkscape:connector-curvature="0"
             style="fill:#ffa500" />
        </g>
        <g
           id="g5190">
          <path
             id="path5192"
             d="m 121.569,28.688 c 0,-1.418 -0.449,-2.529 -1.678,-2.529 -1.229,0 -1.726,1.111 -1.726,2.529 l 0,9.338 1.442,0 0,1.49 -7.896,0 0,-1.49 1.465,0 0,-12.86 -1.465,0 0,-1.441 6.217,0 0,2.41 0.072,0 c 0.591,-1.324 1.962,-2.719 4.16,-2.719 2.317,0 3.735,1.418 4.185,3.285 0.166,0.734 0.213,1.939 0.213,2.553 l 0,8.771 1.891,0 0,1.49 -6.88,0 0,-10.827 z m -31.89,0 c 0,-1.418 -0.449,-2.529 -1.678,-2.529 -1.229,0 -1.726,1.111 -1.726,2.529 l 0,9.338 1.442,0 0,1.49 -7.896,0 0,-1.49 1.465,0 0,-12.86 -1.465,0 0,-1.441 6.217,0 0,2.41 0.071,0 c 0.591,-1.324 1.962,-2.719 4.161,-2.719 2.317,0 3.735,1.418 4.184,3.285 0.166,0.734 0.213,1.939 0.213,2.553 l 0,8.771 1.892,0 0,1.49 -6.88,0 0,-10.827 z m 45.46,-3.522 0,11.678 c 0,0.803 0.52,0.992 1.016,0.992 0.473,0 0.922,-0.164 0.922,-0.164 l 0,1.441 c 0,0 -0.945,0.59 -3.05,0.59 -2.458,0 -3.901,-1.205 -3.901,-3.758 l 0,-10.779 -1.678,0 0,-1.064 c 1.867,-1.488 4.042,-3.191 5.768,-4.633 l 0.922,0 0,4.256 2.412,0 0,1.441 -2.411,0 z M 36.606,15.521 c 0,0 3.806,3.805 5.556,5.768 l 0,1.488 c -1.631,-1.725 -5.012,-3.168 -8.156,-3.168 -7.116,0 -11.584,5.367 -11.584,12.01 0,6.619 4.232,11.986 11.584,11.986 3.664,0 6.595,-1.727 8.227,-3.5 l 0,1.418 c -2.223,3.051 -6.288,5.035 -11.347,5.035 -9.055,0 -15.296,-6.57 -15.296,-14.939 0,-8.369 6.927,-14.916 15.296,-14.916 2.128,0 4.042,0.354 5.721,0.945 l 0,-2.127 z m 72.813,19.786 c -0.709,0.828 -1.821,1.465 -3.475,1.465 -1.443,0 -3.665,-0.803 -3.759,-4.467 l 8.439,0 c 0.024,-0.283 0.047,-0.852 0.047,-1.135 0,-4.443 -1.82,-7.754 -6.572,-7.754 -4.775,0 -7.21,3.666 -7.21,8.227 0,4.562 2.435,8.156 7.21,8.156 3.073,0 5.012,-1.441 6.146,-3.711 l -0.826,-0.781 z m -7.234,-4.539 c 0,-4.16 0.331,-5.721 1.75,-5.721 1.442,0 1.726,1.514 1.773,5.721 l -3.523,0 z m -69.693,0.804 c 0,-4.822 0.449,-6.951 2.081,-6.951 1.632,0 2.08,2.129 2.08,6.951 0,4.822 -0.449,6.949 -2.08,6.949 -1.631,0 -2.081,-2.126 -2.081,-6.949 m -5.863,0.047 c 0,4.775 2.931,8.652 7.943,8.652 5.011,0 7.943,-3.877 7.943,-8.652 0,-4.775 -2.932,-8.652 -7.943,-8.652 -5.011,0 -7.943,3.877 -7.943,8.652 m 27.069,-2.931 c 0,-1.418 -0.449,-2.529 -1.678,-2.529 -1.229,0 -1.726,1.111 -1.726,2.529 l 0,9.338 1.442,0 0,1.49 -7.896,0 0,-1.49 1.466,0 0,-12.86 -1.466,0 0,-1.441 6.218,0 0,2.41 0.07,0 c 0.591,-1.324 1.962,-2.719 4.161,-2.719 2.317,0 3.735,1.418 4.185,3.285 0.165,0.734 0.212,1.939 0.212,2.553 l 0,8.771 1.891,0 0,1.49 -6.879,0 0,-10.827 z m 17.885,-9.149 c 0,1.395 1.253,2.316 3.05,2.316 1.796,0 3.049,-0.922 3.049,-2.316 0,-1.394 -1.253,-2.316 -3.049,-2.316 -1.798,0 -3.05,0.922 -3.05,2.316 m -4.315,5.627 0,11.678 c 0,0.803 0.52,0.992 1.016,0.992 0.473,0 0.922,-0.164 0.922,-0.164 l 0,1.441 c 0,0 -0.945,0.59 -3.049,0.59 -2.459,0 -3.901,-1.205 -3.901,-3.758 l 0,-10.779 -1.679,0 0,-1.064 c 1.869,-1.488 4.044,-3.191 5.769,-4.633 l 0.922,0 0,4.256 1.938,0 0,1.441 -1.938,0 z m 92.221,12.859 1.938,0 0,1.49 -6.927,0 0,-20.189 -1.725,0 0,-1.441 6.713,0 0,20.14 z m -13.334,-6.336 c -0.142,-0.141 -0.449,-0.33 -1.087,-0.33 -1.489,0 -1.82,1.467 -1.82,2.979 0,1.49 0.449,2.695 1.726,2.695 0.615,0 0.993,-0.262 1.182,-0.473 l 0,-4.871 z m 0.214,5.934 -0.071,0 c -0.921,1.301 -2.151,2.176 -4.042,2.176 -2.577,0 -4.185,-2.199 -4.185,-4.824 0,-3.166 2.247,-5.176 5.839,-5.176 1.466,0 2.246,0.332 2.246,0.332 l 0,-0.994 c 0,-1.914 -1.182,-2.932 -2.907,-2.932 -2.388,0 -3.617,1.846 -3.617,1.846 l -0.874,-1.064 c 1.583,-2.459 4.018,-3.57 6.288,-3.57 3.83,0 6.099,2.27 6.099,5.721 l 0,8.889 1.607,0 0,1.49 -6.382,0 0,-1.894 z m -75.709,1.893 0,-1.49 1.443,0 0,-12.86 -1.443,0 0,-1.441 6.431,0 0,14.301 1.466,0 0,1.49 -7.897,0 z"
             inkscape:connector-curvature="0"
             style="fill:#ffa500" />
        </g>
      </g>
    </g>
  </g>
  <circle
     style="fill:#ff0000;fill-opacity:1;stroke:#ff0000;stroke-width:66.16883087;stroke-miterlimit:4;stroke-dasharray:none;stroke-dashoffset:0;stroke-opacity:1"
     id="path4247"
     cx="1771.1716"
     cy="1768.0854"
     r="91.855957" />
  <circle
     style="fill:#00ff00;fill-opacity:1;stroke:#00ff00;stroke-width:66.16883087;stroke-miterlimit:4;stroke-dasharray:none;stroke-dashoffset:0;stroke-opacity:1"
     id="path4247-7"
     cx="1768.4215"
     cy="14177.318"
     r="91.855957" />
  <text
     xml:space="preserve"
     style="font-style:normal;font-variant:normal;font-weight:normal;font-stretch:normal;font-size:186.08183289px;line-height:125%;font-family:'Segoe Print';-inkscape-font-specification:'Segoe Print';letter-spacing:0px;word-spacing:0px;fill:#000000;fill-opacity:1;stroke:none;stroke-width:1px;stroke-linecap:butt;stroke-linejoin:miter;stroke-opacity:1"
     x="1396.9465"
     y="1431.3662"
     id="text5347"
     sodipodi:linespacing="125%"><tspan
       sodipodi:role="line"
       id="tspan5349"
       x="1396.9465"
       y="1431.3662">START</tspan></text>
  <text
     xml:space="preserve"
     style="font-style:normal;font-variant:normal;font-weight:normal;font-stretch:normal;font-size:186.08183289px;line-height:125%;font-family:'Segoe Print';-inkscape-font-specification:'Segoe Print';letter-spacing:0px;word-spacing:0px;fill:#000000;fill-opacity:1;stroke:none;stroke-width:1px;stroke-linecap:butt;stroke-linejoin:miter;stroke-opacity:1"
     x="1425.5354"
     y="14517.976"
     id="text5347-6"
     sodipodi:linespacing="125%"><tspan
       sodipodi:role="line"
       id="tspan5349-5"
       x="1425.5354"
       y="14517.976">FINISH</tspan></text>
  <g
     id="g4628"
     transform="translate(524.71515,139.57212)">
    <g
       id="g4357"
       transform="translate(-68.251941,-693.56602)">
      <text
         xml:space="preserve"
         style="font-style:normal;font-variant:normal;font-weight:normal;font-stretch:normal;font-size:180px;line-height:125%;font-family:'Segoe Print';-inkscape-font-specification:'Segoe Print';letter-spacing:0px;word-spacing:0px;fill:#000000;fill-opacity:1;stroke:none;stroke-width:1px;stroke-linecap:butt;stroke-linejoin:miter;stroke-opacity:1"
         x="2805.418"
         y="857.02277"
         id="text5347-2"
         sodipodi:linespacing="125%"><tspan
           sodipodi:role="line"
           id="tspan5349-56"
           x="2805.418"
           y="857.02277">1</tspan></text>
      <circle
         style="fill:none;fill-opacity:1;stroke:#000000;stroke-width:10;stroke-miterlimit:4;stroke-dasharray:none;stroke-dashoffset:0;stroke-opacity:1"
         id="path4626"
         cx="2859.3342"
         cy="804.13916"
         r="100" />
    </g>
  </g>
</svg>
