<?xml version="1.0" encoding="UTF-8" standalone="no"?>
<svg
   xmlns:dc="http://purl.org/dc/elements/1.1/"
   xmlns:cc="http://creativecommons.org/ns#"
   xmlns:rdf="http://www.w3.org/1999/02/22-rdf-syntax-ns#"
   xmlns:svg="http://www.w3.org/2000/svg"
   xmlns="http://www.w3.org/2000/svg"
   xmlns:sodipodi="http://sodipodi.sourceforge.net/DTD/sodipodi-0.dtd"
   xmlns:inkscape="http://www.inkscape.org/namespaces/inkscape"
   width="377.9032"
   height="118"
   version="1.1"
   id="svg34"
   sodipodi:docname="7_20_maze2_original.svg"
   inkscape:version="0.92.2 (5c3e80d, 2017-08-06)"
   inkscape:export-filename="/home/freaf87/Workspaces/eclipse-workspace/DisplayImage/image/2/7_20_maze2_original.png"
   inkscape:export-xdpi="161"
   inkscape:export-ydpi="161">
  <metadata
     id="metadata40">
    <rdf:RDF>
      <cc:Work
         rdf:about="">
        <dc:format>image/svg+xml</dc:format>
        <dc:type
           rdf:resource="http://purl.org/dc/dcmitype/StillImage" />
        <dc:title>7 by 20 orthogonal maze</dc:title>
      </cc:Work>
    </rdf:RDF>
  </metadata>
  <defs
     id="defs38" />
  <sodipodi:namedview
     pagecolor="#ffffff"
     bordercolor="#666666"
     borderopacity="1"
     objecttolerance="10"
     gridtolerance="10"
     guidetolerance="10"
     inkscape:pageopacity="1"
     inkscape:pageshadow="2"
     inkscape:window-width="956"
     inkscape:window-height="1011"
     id="namedview36"
     showgrid="false"
     fit-margin-top="10"
     fit-margin-left="10"
     fit-margin-right="10"
     fit-margin-bottom="10"
     inkscape:zoom="1.0301062"
     inkscape:cx="161.45088"
     inkscape:cy="182.45741"
     inkscape:window-x="0"
     inkscape:window-y="0"
     inkscape:window-maximized="0"
     inkscape:current-layer="svg34" />
  <title
     id="title2">7 by 20 orthogonal maze</title>
  <desc
     id="desc4">7 by 20 orthogonal maze generated by The Maze Generator Website (http://www.mazegenerator.net/).</desc>
  <g
     id="g32"
     transform="rotate(-90,71.461072,45.538928)"
     style="fill:none;stroke:#000000;stroke-width:2;stroke-linecap:square;stroke-linejoin:round">
    <polyline
       points="58,2 58,10 106,10 106,58 90,58 90,74 106,74 106,90 74,90 74,74 58,74 58,106 106,106 106,138 90,138 90,122 74,122 74,138 58,138 58,202 106,202 106,234 90,234 90,218 74,218 74,234 58,234 58,266 42,266 42,298 106,298 106,314 58,314 58,322"
       id="polyline6" />
    <polyline
       points="74,218 10,218 10,234 42,234 42,250 26,250 26,298 10,298 10,314 42,314"
       id="polyline8" />
    <polyline
       points="10,298 10,250"
       id="polyline10" />
    <polyline
       points="42,218 42,202 10,202 10,122 26,122 26,154 42,154 42,122 58,122"
       id="polyline12" />
    <polyline
       points="10,186 26,186 26,170 42,170 42,186"
       id="polyline14" />
    <polyline
       points="106,234 106,266 74,266 74,282 106,282"
       id="polyline16" />
    <polyline
       points="74,282 58,282"
       id="polyline18" />
    <polyline
       points="74,266 74,250 90,250"
       id="polyline20" />
    <polyline
       points="90,202 90,186 106,186 106,154 90,154 90,170 74,170 74,186"
       id="polyline22" />
    <polyline
       points="74,170 74,154"
       id="polyline24" />
    <polyline
       points="58,90 42,90 42,106 10,106 10,90 26,90"
       id="polyline26" />
    <polyline
       points="90,10 90,26 58,26 58,42 42,42 42,26 10,26 10,42 26,42 26,58 10,58 10,74 42,74 42,58 74,58 74,42 90,42"
       id="polyline28" />
    <polyline
       points="58,10 10,10"
       id="polyline30" />
  </g>
  <path
     style="fill:none;fill-rule:evenodd;stroke:#000000;stroke-width:2;stroke-linecap:butt;stroke-linejoin:miter;stroke-miterlimit:4;stroke-dasharray:none;stroke-opacity:1"
     d="m 27.922142,58.999998 h -15"
     id="path4176"
     inkscape:connector-curvature="0" />
  <path
     style="fill:none;fill-rule:evenodd;stroke:#000000;stroke-width:2;stroke-linecap:butt;stroke-linejoin:miter;stroke-miterlimit:4;stroke-dasharray:none;stroke-opacity:1"
     d="m 362.92214,58.999998 h -15"
     id="path4176-3"
     inkscape:connector-curvature="0" />
  <circle
     style="fill:#ff0000;fill-opacity:1;stroke:#ff0000;stroke-width:2;stroke-miterlimit:4;stroke-dasharray:none;stroke-dashoffset:0;stroke-opacity:1"
     id="path4180-4"
     cx="-59.198307"
     cy="13"
     r="2"
     transform="rotate(-90)" />
  <circle
     style="fill:#00ff00;fill-opacity:1;stroke:#00ff00;stroke-width:2;stroke-miterlimit:4;stroke-dasharray:none;stroke-dashoffset:0;stroke-opacity:1"
     id="path4180"
     cx="-58.728764"
     cy="364.9032"
     r="2"
     transform="rotate(-90)" />
</svg>
