<?xml version="1.0" encoding="UTF-8" standalone="no"?>
<svg
   xmlns:dc="http://purl.org/dc/elements/1.1/"
   xmlns:cc="http://creativecommons.org/ns#"
   xmlns:rdf="http://www.w3.org/1999/02/22-rdf-syntax-ns#"
   xmlns:svg="http://www.w3.org/2000/svg"
   xmlns="http://www.w3.org/2000/svg"
   xmlns:sodipodi="http://sodipodi.sourceforge.net/DTD/sodipodi-0.dtd"
   xmlns:inkscape="http://www.inkscape.org/namespaces/inkscape"
   width="802.58789"
   height="781.18799"
   version="1.1"
   id="svg30"
   sodipodi:docname="10 by 10 orthogonal maze.svg"
   inkscape:version="0.92.2 (5c3e80d, 2017-08-06)">
  <metadata
     id="metadata36">
    <rdf:RDF>
      <cc:Work
         rdf:about="">
        <dc:format>image/svg+xml</dc:format>
        <dc:type
           rdf:resource="http://purl.org/dc/dcmitype/StillImage" />
        <dc:title>10 by 10 orthogonal maze</dc:title>
      </cc:Work>
    </rdf:RDF>
  </metadata>
  <defs
     id="defs34" />
  <sodipodi:namedview
     pagecolor="#ffffff"
     bordercolor="#666666"
     borderopacity="1"
     objecttolerance="10"
     gridtolerance="10"
     guidetolerance="10"
     inkscape:pageopacity="0"
     inkscape:pageshadow="2"
     inkscape:window-width="1920"
     inkscape:window-height="1011"
     id="namedview32"
     showgrid="false"
     fit-margin-top="10"
     fit-margin-left="10"
     fit-margin-right="10"
     fit-margin-bottom="10"
     inkscape:zoom="0.50877195"
     inkscape:cx="539.0454"
     inkscape:cy="389.76572"
     inkscape:window-x="0"
     inkscape:window-y="0"
     inkscape:window-maximized="1"
     inkscape:current-layer="svg30" />
  <title
     id="title2">10 by 10 orthogonal maze</title>
  <desc
     id="desc4">10 by 10 orthogonal maze generated by The Maze Generator Website (http://www.mazegenerator.net/).</desc>
  <g
     id="g28"
     transform="matrix(5.3601911,0,0,4.9427793,-38.24172,5.0572207)"
     style="fill:none;stroke:#000000;stroke-width:2;stroke-linecap:square;stroke-linejoin:round">
    <polyline
       points="74,2 74,10 90,10 90,58 74,58 74,26 58,26 58,74 42,74 42,90 10,90 10,138 26,138 26,122 42,122 42,154 122,154 122,106 138,106 138,154 154,154 154,90 106,90 106,122 90,122 90,98"
       id="polyline6" />
    <polyline
       points="90,154 90,138 106,138"
       id="polyline8" />
    <polyline
       points="26,138 26,154 10,154"
       id="polyline10" />
    <polyline
       points="58,74 58,106 74,106 74,122 58,122 58,138 74,138"
       id="polyline12" />
    <polyline
       points="58,106 26,106"
       id="polyline14" />
    <polyline
       points="58,58 42,58 42,10 10,10 10,74 26,74 26,26"
       id="polyline16" />
    <polyline
       points="90,58 122,58 122,74 138,74 138,10 154,10 154,42"
       id="polyline18" />
    <polyline
       points="138,26 122,26 122,42 106,42 106,10 122,10"
       id="polyline20" />
    <polyline
       points="138,58 154,58 154,74"
       id="polyline22" />
    <polyline
       points="122,74 106,74"
       id="polyline24" />
    <polyline
       points="74,10 58,10"
       id="polyline26" />
  </g>
</svg>
